<?xml version="1.0" encoding="UTF-8" standalone="no"?>
<svg width="103px" height="46px" viewBox="0 0 103 46" version="1.1" xmlns="http://www.w3.org/2000/svg" xmlns:xlink="http://www.w3.org/1999/xlink" xmlns:sketch="http://www.bohemiancoding.com/sketch/ns">
    <!-- Generator: Sketch 3.3.3 (12072) - http://www.bohemiancoding.com/sketch -->
    <title>Rectangle 1</title>
    <desc>Created with Sketch.</desc>
    <defs></defs>
    <g id="Page-1" stroke="none" stroke-width="1" fill="none" fill-rule="evenodd" sketch:type="MSPage">
        <g id="interzone_footer_logo" sketch:type="MSLayerGroup" stroke-width="4">
            <g id="Group" transform="translate(4.000000, 3.000000)" sketch:type="MSShapeGroup">
                <path d="M38.8,20 C38.8,30.6 30.2,39.3 19.5,39.3 C8.9,39.3 0.2,30.7 0.2,20 C0.2,9.3 8.8,0.7 19.5,0.7 C30.1,0.7 38.8,9.4 38.8,20" id="Shape" stroke="#8D74E8"></path>
                <path d="M67.3,20 C67.3,30.6 58.7,39.3 48,39.3 C37.4,39.3 28.7,30.7 28.7,20 C28.7,9.3 37.3,0.7 48,0.7 C58.6,0.7 67.3,9.4 67.3,20" id="Shape" stroke="#FFA733"></path>
                <path d="M95.8,20 C95.8,30.6 87.2,39.3 76.5,39.3 C65.9,39.3 57.2,30.7 57.2,20 C57.2,9.3 65.8,0.7 76.5,0.7 C87.2,0.7 95.8,9.4 95.8,20" id="Shape" stroke="#03D3D8"></path>
            </g>
        </g>
    </g>
</svg>