<?xml version="1.0" encoding="utf-8"?>
<!-- Generator: Adobe Illustrator 19.1.0, SVG Export Plug-In . SVG Version: 6.00 Build 0)  -->
<svg version="1.1" id="Layer_1" xmlns="http://www.w3.org/2000/svg" xmlns:xlink="http://www.w3.org/1999/xlink" x="0px" y="0px"
	 viewBox="0 0 792 612" style="enable-background:new 0 0 792 612;" xml:space="preserve">
<style type="text/css">
	.st0{fill:none;stroke:#8D74E8;stroke-width:7;stroke-miterlimit:10;}
	.st1{fill:none;stroke:#FFA733;stroke-width:7;stroke-miterlimit:10;}
	.st2{fill:#FFA733;}
	.st3{fill:#8D74E8;}
	.st4{fill:#03D3D8;}
	.st5{fill:none;stroke:#03D3D8;stroke-width:7;stroke-miterlimit:10;}
	.st6{fill:none;stroke:#231F20;stroke-linecap:round;stroke-miterlimit:10;}
	.st7{fill:none;stroke:#231F20;stroke-linecap:round;stroke-miterlimit:10;stroke-dasharray:0,3.9424;}
	.st8{fill:#F1F1F2;}
</style>
<g>
	<path class="st0" d="M366.1,246.2c0,53-43,95.9-95.9,95.9c-53,0-95.9-42.9-95.9-95.9s43-95.9,95.9-95.9
		C323.2,150.3,366.1,193.3,366.1,246.2"/>
	<g>
		<path class="st1" d="M508,246.2c0,53-43,95.9-95.9,95.9c-53,0-95.9-42.9-95.9-95.9s43-95.9,95.9-95.9
			C465,150.3,508,193.3,508,246.2"/>
	</g>
	<g>
		<g>
			<path class="st2" d="M378,113.4c-1.7,0-2.9-0.9-3.8-2l1.5-1.6c0.8,1,1.6,1.4,2.3,1.4c0.9,0,1.4-0.5,1.4-1.4
				c0-0.7-0.4-1.3-1.9-2.1c-1.9-1-3-1.9-3-4c0-1.9,1.4-3.4,3.5-3.4c1.6,0,2.5,0.6,3.4,1.8l-1.5,1.5c-0.7-0.8-1.1-1.1-2-1.1
				c-0.7,0-1.2,0.5-1.2,1.1c0,0.8,0.4,1.2,1.8,2c2.2,1.2,3.1,2,3.1,4.2C381.8,111.9,380.4,113.4,378,113.4z"/>
			<path class="st2" d="M387.4,102.7v10.4h-2.3v-10.4h-2.6v-2.2h7.5v2.2H387.4z"/>
			<path class="st2" d="M396,113.2l-0.6-2.6h-2.8l-0.6,2.6h-2.3l3.2-12.6h2.2l3.2,12.6H396z M394.6,106.9c-0.2-1-0.5-2.4-0.6-3.1
				c-0.1,0.6-0.3,2-0.6,3l-0.3,1.5h1.9L394.6,106.9z"/>
			<path class="st2" d="M405.3,113.2l-2.3-5.6c-0.3-0.8-0.7-1.8-1-2.6c0,0.8,0,2.1,0,2.9v5.3H400v-12.6h2.3l2.2,5.5
				c0.3,0.8,0.8,1.9,1,2.6c0-0.8-0.1-2.1-0.1-2.9v-5.2h2.1v12.6H405.3z"/>
			<path class="st2" d="M412.6,113.2h-2.8v-12.6h2.8c3,0,4.8,1.9,4.8,6.3S415.6,113.2,412.6,113.2z M412.7,102.8h-0.6v8.2h0.6
				c2,0,2.5-1.8,2.5-4.1C415.2,104.6,414.7,102.8,412.7,102.8z"/>
			<path class="st2" d="M424.6,113.2l-0.6-2.6h-2.8l-0.6,2.6h-2.3l3.2-12.6h2.2l3.2,12.6H424.6z M423.2,106.9
				c-0.2-1-0.5-2.4-0.6-3.1c-0.1,0.6-0.3,2-0.6,3l-0.3,1.5h1.9L423.2,106.9z"/>
			<path class="st2" d="M433.5,113.2l-2-4.8h-0.7v4.8h-2.2v-12.6h3.3c2.4,0,4,1.3,4,3.9c0,1.8-0.9,2.9-2.1,3.4l2.2,5.2H433.5z
				 M431.8,102.8h-1v3.5h1.1c1.2,0,1.7-0.6,1.7-1.7C433.7,103.4,433.2,102.8,431.8,102.8z"/>
			<path class="st2" d="M440.6,113.2h-2.8v-12.6h2.8c3,0,4.8,1.9,4.8,6.3S443.5,113.2,440.6,113.2z M440.6,102.8H440v8.2h0.6
				c2,0,2.5-1.8,2.5-4.1C443.1,104.6,442.6,102.8,440.6,102.8z"/>
			<path class="st2" d="M400.8,121.1v10.4h-2.3v-10.4h-2.6V119h7.5v2.2H400.8z"/>
			<path class="st2" d="M405.1,131.6V119h2.3v12.6H405.1z"/>
			<path class="st2" d="M416.9,131.6v-4.1c0-1.5,0-2.9,0-3.8c-0.3,0.9-0.7,2.3-1.1,3.7l-1.5,4.5l-1.5-4.5c-0.5-1.4-0.9-2.8-1.1-3.7
				c0,0.9,0,2.3,0,3.8v4.1h-2V119h2.3l1.5,4.7c0.4,1.2,0.7,2.3,0.8,2.8c0.1-0.6,0.5-1.7,0.8-2.8l1.5-4.7h2.2v12.6H416.9z"/>
			<path class="st2" d="M421.3,131.6V119h6.5v2.2h-4.2v2.7h2.8v2.1h-2.8v3.5h4.4v2.2H421.3z"/>
		</g>
	</g>
	<g>
		<g>
			<path class="st3" d="M230.3,113.4c-1.7,0-2.9-0.9-3.8-2l1.5-1.6c0.8,1,1.6,1.4,2.3,1.4c0.9,0,1.4-0.5,1.4-1.4
				c0-0.7-0.4-1.3-1.9-2.1c-1.9-1-3-1.9-3-4c0-1.9,1.4-3.4,3.5-3.4c1.6,0,2.5,0.6,3.4,1.8l-1.5,1.5c-0.7-0.8-1.1-1.1-2-1.1
				c-0.7,0-1.2,0.5-1.2,1.1c0,0.8,0.4,1.2,1.8,2c2.2,1.2,3.1,2,3.1,4.2C234.1,111.9,232.6,113.4,230.3,113.4z"/>
			<path class="st3" d="M239.6,102.7v10.4h-2.3v-10.4h-2.6v-2.2h7.5v2.2H239.6z"/>
			<path class="st3" d="M248.3,113.2l-0.6-2.6h-2.8l-0.6,2.6H242l3.2-12.6h2.2l3.2,12.6H248.3z M246.9,106.9c-0.2-1-0.5-2.4-0.6-3.1
				c-0.1,0.6-0.3,2-0.6,3l-0.3,1.5h1.9L246.9,106.9z"/>
			<path class="st3" d="M257.6,113.2l-2.3-5.6c-0.3-0.8-0.7-1.8-1-2.6c0,0.8,0,2.1,0,2.9v5.3h-2.1v-12.6h2.3l2.2,5.5
				c0.3,0.8,0.8,1.9,1,2.6c0-0.8-0.1-2.1-0.1-2.9v-5.2h2.1v12.6H257.6z"/>
			<path class="st3" d="M264.9,113.2h-2.8v-12.6h2.8c3,0,4.8,1.9,4.8,6.3S267.8,113.2,264.9,113.2z M264.9,102.8h-0.6v8.2h0.6
				c2,0,2.5-1.8,2.5-4.1C267.4,104.6,267,102.8,264.9,102.8z"/>
			<path class="st3" d="M276.9,113.2l-0.6-2.6h-2.8l-0.6,2.6h-2.3l3.2-12.6h2.2l3.2,12.6H276.9z M275.4,106.9
				c-0.2-1-0.5-2.4-0.6-3.1c-0.1,0.6-0.3,2-0.6,3l-0.3,1.5h1.9L275.4,106.9z"/>
			<path class="st3" d="M285.8,113.2l-2-4.8h-0.7v4.8h-2.3v-12.6h3.3c2.4,0,4,1.3,4,3.9c0,1.8-0.9,2.9-2.1,3.4l2.2,5.2H285.8z
				 M284.1,102.8h-1v3.5h1.1c1.2,0,1.7-0.6,1.7-1.7C286,103.4,285.5,102.8,284.1,102.8z"/>
			<path class="st3" d="M292.8,113.2H290v-12.6h2.8c3,0,4.8,1.9,4.8,6.3S295.8,113.2,292.8,113.2z M292.9,102.8h-0.6v8.2h0.6
				c2,0,2.5-1.8,2.5-4.1C295.4,104.6,294.9,102.8,292.9,102.8z"/>
			<path class="st3" d="M214.9,121.1v10.4h-2.3v-10.4H210V119h7.5v2.2H214.9z"/>
			<path class="st3" d="M219.2,131.6V119h2.3v12.6H219.2z"/>
			<path class="st3" d="M231,131.6v-4.1c0-1.5,0-2.9,0-3.8c-0.3,0.9-0.7,2.3-1.1,3.7l-1.5,4.5l-1.5-4.5c-0.5-1.4-0.9-2.8-1.1-3.7
				c0,0.9,0,2.3,0,3.8v4.1h-2V119h2.3l1.5,4.7c0.4,1.2,0.7,2.3,0.8,2.8c0.1-0.6,0.5-1.7,0.8-2.8l1.5-4.7h2.2v12.6H231z"/>
			<path class="st3" d="M235.4,131.6V119h6.5v2.2h-4.2v2.7h2.8v2.1h-2.8v3.5h4.4v2.2H235.4z"/>
			<path class="st3" d="M247.8,126.2v-2.3h5.9v2.3H247.8z"/>
			<path class="st3" d="M259.5,131.6c0.1-3.9,1.3-5.5,3.7-7.2c0.9-0.6,1.2-1.2,1.2-1.9c0-1-0.5-1.5-1.4-1.5c-0.8,0-1.4,0.5-2,1.1
				l-1.4-1.6c0.8-1.1,2-1.7,3.5-1.7c2.2,0,3.6,1.2,3.6,3.4c0,1.7-0.9,2.8-2.1,3.7c-1.7,1.3-2.5,2.1-2.6,3.5h4.7v2.2H259.5z"/>
			<path class="st3" d="M278.5,131.6v-5.4h-2.9v5.4h-2.3V119h2.3v5h2.9v-5h2.3v12.6H278.5z"/>
			<path class="st3" d="M286.8,131.8c-2.9,0-4.2-2.9-4.2-6.5c0-3.6,1.3-6.5,4.2-6.5c2.9,0,4.2,2.9,4.2,6.5
				C291,128.9,289.7,131.8,286.8,131.8z M286.8,121c-1.4,0-1.9,1.5-1.9,4.2c0,2.7,0.6,4.3,1.9,4.3c1.3,0,1.9-1.5,1.9-4.2
				C288.7,122.6,288.1,121,286.8,121z"/>
			<path class="st3" d="M296.5,131.8c-2.7,0-3.7-2.1-3.7-5.2V119h2.3v7.6c0,2.2,0.5,3,1.5,3c1,0,1.5-0.8,1.5-3V119h2.3v7.6
				C300.3,129.8,299.3,131.8,296.5,131.8z"/>
			<path class="st3" d="M307.5,131.6l-2-4.8h-0.7v4.8h-2.3V119h3.3c2.4,0,4,1.3,4,3.9c0,1.8-0.9,2.9-2.1,3.4l2.2,5.2H307.5z
				 M305.8,121.2h-1v3.5h1.1c1.2,0,1.7-0.6,1.7-1.7C307.7,121.8,307.2,121.2,305.8,121.2z"/>
			<path class="st3" d="M314.8,131.8c-1.7,0-2.9-0.9-3.8-2l1.5-1.6c0.8,1,1.6,1.4,2.3,1.4c0.9,0,1.4-0.5,1.4-1.4
				c0-0.7-0.5-1.3-1.9-2.1c-1.9-1-3-1.9-3-4c0-1.9,1.4-3.4,3.5-3.4c1.6,0,2.5,0.6,3.4,1.8l-1.5,1.5c-0.7-0.8-1.1-1.1-2-1.1
				c-0.7,0-1.2,0.5-1.2,1.1c0,0.8,0.4,1.2,1.8,2c2.2,1.2,3.1,2,3.1,4.2C318.6,130.3,317.1,131.8,314.8,131.8z"/>
		</g>
	</g>
	<g>
		<g>
			<path class="st3" d="M247.4,257.9v-28h5v28H247.4z"/>
			<path class="st3" d="M256.7,257.9v-4.4l8.1-15.6c0.7-1.4,1.4-2.6,2-3.5c-1,0-2.2,0.1-3.6,0.1h-5.9v-4.5H272v4.4l-8,15.6
				c-0.7,1.4-1.4,2.6-2,3.5c1,0,2.2-0.1,3.6-0.1h6.5v4.5H256.7z"/>
			<path class="st3" d="M287.9,257.9v-20.8h-3.8V234c2.8-0.3,4-2,4.5-4h4.3v28H287.9z"/>
		</g>
	</g>
	<g>
		<g>
			<path class="st2" d="M385.2,257.9v-28h5v28H385.2z"/>
			<path class="st2" d="M394.5,257.9v-4.4l8.1-15.6c0.7-1.4,1.4-2.6,2-3.5c-1,0-2.2,0.1-3.6,0.1h-5.9v-4.5h14.6v4.4l-8,15.6
				c-0.7,1.4-1.4,2.6-2,3.5c1,0,2.2-0.1,3.6-0.1h6.5v4.5H394.5z"/>
			<path class="st2" d="M422.7,257.9c0.3-8.6,3-12.1,8.2-15.9c1.9-1.4,2.6-2.6,2.6-4.2c0-2.2-1.1-3.3-3.2-3.3c-1.8,0-3.2,1-4.5,2.5
				l-3.1-3.6c1.9-2.4,4.4-3.9,7.8-3.9c4.8,0,8.1,2.7,8.1,7.6c0,3.9-1.9,6.3-4.6,8.3c-3.8,2.8-5.5,4.7-5.7,7.7h10.4v4.9H422.7z"/>
		</g>
	</g>
	<g>
		<g>
			<path class="st4" d="M527.3,257.9v-28h5v28H527.3z"/>
			<path class="st4" d="M536.6,257.9v-4.4l8.1-15.6c0.7-1.4,1.4-2.6,2-3.5c-1,0-2.2,0.1-3.6,0.1h-5.9v-4.5h14.6v4.4l-8,15.6
				c-0.7,1.4-1.4,2.6-2,3.5c1,0,2.2-0.1,3.6-0.1h6.5v4.5H536.6z"/>
			<path class="st4" d="M572.3,258.4c-3.8,0-6.4-1.6-8.6-5.1l4-2.8c1.5,2.2,2.9,3,4.8,3c2.4,0,3.8-1.5,3.8-3.8c0-2.8-1.9-4-4.5-4
				h-1.9v-4.8h2c2.3,0,3.6-1,3.6-3c0-1.8-0.9-3.3-3.3-3.3c-1.5,0-2.6,0.6-4,2.1l-3.4-3.4c2-2.3,4-3.6,7.8-3.6c4.8,0,8,3,8,7.6
				c0,3.2-1.6,5-3.9,5.8c2.4,0.7,4.7,2.7,4.7,6.6C581.3,255,578,258.4,572.3,258.4z"/>
		</g>
	</g>
	<g>
		<g>
			<path class="st4" d="M519.9,113.4c-1.7,0-2.9-0.9-3.8-2l1.5-1.6c0.8,1,1.6,1.4,2.3,1.4c0.9,0,1.4-0.5,1.4-1.4
				c0-0.7-0.5-1.3-1.9-2.1c-1.9-1-3-1.9-3-4c0-1.9,1.4-3.4,3.5-3.4c1.6,0,2.5,0.6,3.4,1.8l-1.5,1.5c-0.7-0.8-1.1-1.1-2-1.1
				c-0.7,0-1.2,0.5-1.2,1.1c0,0.8,0.4,1.2,1.8,2c2.2,1.2,3.1,2,3.1,4.2C523.7,111.9,522.2,113.4,519.9,113.4z"/>
			<path class="st4" d="M529.2,102.7v10.4H527v-10.4h-2.6v-2.2h7.5v2.2H529.2z"/>
			<path class="st4" d="M537.9,113.2l-0.6-2.6h-2.8l-0.6,2.6h-2.3l3.2-12.6h2.2l3.2,12.6H537.9z M536.5,106.9
				c-0.2-1-0.5-2.4-0.6-3.1c-0.1,0.6-0.3,2-0.6,3l-0.3,1.5h1.9L536.5,106.9z"/>
			<path class="st4" d="M547.2,113.2l-2.3-5.6c-0.3-0.8-0.7-1.8-1-2.6c0,0.8,0,2.1,0,2.9v5.3h-2.1v-12.6h2.3l2.2,5.5
				c0.3,0.8,0.8,1.9,1,2.6c0-0.8-0.1-2.1-0.1-2.9v-5.2h2.1v12.6H547.2z"/>
			<path class="st4" d="M554.5,113.2h-2.8v-12.6h2.8c3,0,4.8,1.9,4.8,6.3S557.4,113.2,554.5,113.2z M554.5,102.8h-0.6v8.2h0.6
				c2,0,2.5-1.8,2.5-4.1C557,104.6,556.5,102.8,554.5,102.8z"/>
			<path class="st4" d="M566.5,113.2l-0.6-2.6H563l-0.6,2.6h-2.3l3.2-12.6h2.2l3.2,12.6H566.5z M565,106.9c-0.2-1-0.5-2.4-0.6-3.1
				c-0.1,0.6-0.3,2-0.6,3l-0.3,1.5h1.9L565,106.9z"/>
			<path class="st4" d="M575.4,113.2l-2-4.8h-0.7v4.8h-2.3v-12.6h3.3c2.4,0,4,1.3,4,3.9c0,1.8-0.9,2.9-2.1,3.4l2.2,5.2H575.4z
				 M573.7,102.8h-1v3.5h1.1c1.2,0,1.7-0.6,1.7-1.7C575.6,103.4,575,102.8,573.7,102.8z"/>
			<path class="st4" d="M582.4,113.2h-2.8v-12.6h2.8c3,0,4.8,1.9,4.8,6.3S585.4,113.2,582.4,113.2z M582.5,102.8h-0.6v8.2h0.6
				c2,0,2.5-1.8,2.5-4.1C585,104.6,584.5,102.8,582.5,102.8z"/>
			<path class="st4" d="M503.7,121.1v10.4h-2.2v-10.4h-2.6V119h7.5v2.2H503.7z"/>
			<path class="st4" d="M508,131.6V119h2.3v12.6H508z"/>
			<path class="st4" d="M519.8,131.6v-4.1c0-1.5,0-2.9,0-3.8c-0.3,0.9-0.7,2.3-1.1,3.7l-1.5,4.5l-1.5-4.5c-0.5-1.4-0.9-2.8-1.1-3.7
				c0,0.9,0,2.3,0,3.8v4.1h-2V119h2.3l1.5,4.7c0.4,1.2,0.7,2.3,0.8,2.8c0.1-0.6,0.5-1.7,0.8-2.8l1.5-4.7h2.2v12.6H519.8z"/>
			<path class="st4" d="M524.2,131.6V119h6.5v2.2h-4.2v2.7h2.8v2.1h-2.8v3.5h4.4v2.2H524.2z"/>
			<path class="st4" d="M541.4,126.4v3.2h-2.1v-3.2h-2.9v-2.1h2.9v-3.2h2.1v3.2h2.9v2.1H541.4z"/>
			<path class="st4" d="M549.9,131.6c0.1-3.9,1.3-5.5,3.7-7.2c0.9-0.6,1.2-1.2,1.2-1.9c0-1-0.5-1.5-1.4-1.5c-0.8,0-1.4,0.5-2,1.1
				l-1.4-1.6c0.8-1.1,2-1.7,3.5-1.7c2.2,0,3.6,1.2,3.6,3.4c0,1.7-0.9,2.8-2.1,3.7c-1.7,1.3-2.5,2.1-2.6,3.5h4.7v2.2H549.9z"/>
			<path class="st4" d="M568.9,131.6v-5.4H566v5.4h-2.3V119h2.3v5h2.9v-5h2.3v12.6H568.9z"/>
			<path class="st4" d="M577.2,131.8c-2.9,0-4.2-2.9-4.2-6.5c0-3.6,1.3-6.5,4.2-6.5c2.9,0,4.2,2.9,4.2,6.5
				C581.4,128.9,580.1,131.8,577.2,131.8z M577.2,121c-1.4,0-1.9,1.5-1.9,4.2c0,2.7,0.6,4.3,1.9,4.3c1.3,0,1.9-1.5,1.9-4.2
				C579.1,122.6,578.5,121,577.2,121z"/>
			<path class="st4" d="M587,131.8c-2.7,0-3.7-2.1-3.7-5.2V119h2.3v7.6c0,2.2,0.5,3,1.5,3c1,0,1.5-0.8,1.5-3V119h2.3v7.6
				C590.7,129.8,589.7,131.8,587,131.8z"/>
			<path class="st4" d="M598,131.6l-2-4.8h-0.7v4.8H593V119h3.3c2.4,0,4,1.3,4,3.9c0,1.8-0.9,2.9-2.1,3.4l2.2,5.2H598z M596.2,121.2
				h-1v3.5h1.1c1.2,0,1.7-0.6,1.7-1.7C598.1,121.8,597.6,121.2,596.2,121.2z"/>
			<path class="st4" d="M605.2,131.8c-1.7,0-2.9-0.9-3.8-2l1.5-1.6c0.8,1,1.6,1.4,2.3,1.4c0.9,0,1.4-0.5,1.4-1.4
				c0-0.7-0.5-1.3-1.9-2.1c-1.9-1-3-1.9-3-4c0-1.9,1.4-3.4,3.5-3.4c1.6,0,2.5,0.6,3.4,1.8l-1.5,1.5c-0.7-0.8-1.1-1.1-2-1.1
				c-0.7,0-1.2,0.5-1.2,1.1c0,0.8,0.4,1.2,1.8,2c2.2,1.2,3.1,2,3.1,4.2C609,130.3,607.5,131.8,605.2,131.8z"/>
		</g>
	</g>
	<g>
		<path class="st5" d="M649.8,246.2c0,53-43,95.9-95.9,95.9c-53,0-95.9-42.9-95.9-95.9s43-95.9,95.9-95.9
			C606.9,150.3,649.8,193.3,649.8,246.2"/>
	</g>
	<g>
		<g>
			<line class="st6" x1="174.3" y1="380.1" x2="174.3" y2="380.1"/>
			<line class="st7" x1="174.3" y1="384" x2="174.3" y2="512.2"/>
			<line class="st6" x1="174.3" y1="514.1" x2="174.3" y2="514.1"/>
		</g>
	</g>
	<g>
		<g>
			<line class="st6" x1="191.9" y1="380.1" x2="191.9" y2="380.1"/>
			<line class="st7" x1="191.9" y1="384" x2="191.9" y2="512.2"/>
			<line class="st6" x1="191.9" y1="514.1" x2="191.9" y2="514.1"/>
		</g>
	</g>
	<g>
		<g>
			<line class="st6" x1="209.5" y1="380.1" x2="209.5" y2="380.1"/>
			<line class="st7" x1="209.5" y1="384" x2="209.5" y2="512.2"/>
			<line class="st6" x1="209.5" y1="514.1" x2="209.5" y2="514.1"/>
		</g>
	</g>
	<g>
		<g>
			<line class="st6" x1="227.1" y1="380.1" x2="227.1" y2="380.1"/>
			<line class="st7" x1="227.1" y1="384" x2="227.1" y2="512.2"/>
			<line class="st6" x1="227.1" y1="514.1" x2="227.1" y2="514.1"/>
		</g>
	</g>
	<g>
		<g>
			<line class="st6" x1="244.7" y1="380.1" x2="244.7" y2="380.1"/>
			<line class="st7" x1="244.7" y1="384" x2="244.7" y2="512.2"/>
			<line class="st6" x1="244.7" y1="514.1" x2="244.7" y2="514.1"/>
		</g>
	</g>
	<g>
		<g>
			<line class="st6" x1="262.3" y1="380.1" x2="262.3" y2="380.1"/>
			<line class="st7" x1="262.3" y1="384" x2="262.3" y2="512.2"/>
			<line class="st6" x1="262.3" y1="514.1" x2="262.3" y2="514.1"/>
		</g>
	</g>
	<g>
		<g>
			<line class="st6" x1="279.9" y1="380.1" x2="279.9" y2="380.1"/>
			<line class="st7" x1="279.9" y1="384" x2="279.9" y2="512.2"/>
			<line class="st6" x1="279.9" y1="514.1" x2="279.9" y2="514.1"/>
		</g>
	</g>
	<g>
		<g>
			<line class="st6" x1="297.5" y1="380.1" x2="297.5" y2="380.1"/>
			<line class="st7" x1="297.5" y1="384" x2="297.5" y2="512.2"/>
			<line class="st6" x1="297.5" y1="514.1" x2="297.5" y2="514.1"/>
		</g>
	</g>
	<g>
		<g>
			<line class="st6" x1="315.1" y1="380.1" x2="315.1" y2="380.1"/>
			<line class="st7" x1="315.1" y1="384" x2="315.1" y2="512.2"/>
			<line class="st6" x1="315.1" y1="514.1" x2="315.1" y2="514.1"/>
		</g>
	</g>
	<g>
		<g>
			<line class="st6" x1="332.7" y1="380.1" x2="332.7" y2="380.1"/>
			<line class="st7" x1="332.7" y1="384" x2="332.7" y2="512.2"/>
			<line class="st6" x1="332.7" y1="514.1" x2="332.7" y2="514.1"/>
		</g>
	</g>
	<g>
		<g>
			<line class="st6" x1="350.3" y1="380.1" x2="350.3" y2="380.1"/>
			<line class="st7" x1="350.3" y1="384" x2="350.3" y2="512.2"/>
			<line class="st6" x1="350.3" y1="514.1" x2="350.3" y2="514.1"/>
		</g>
	</g>
	<g>
		<g>
			<line class="st6" x1="368" y1="380.1" x2="368" y2="380.1"/>
			<line class="st7" x1="368" y1="384" x2="368" y2="512.2"/>
			<line class="st6" x1="368" y1="514.1" x2="368" y2="514.1"/>
		</g>
	</g>
	<g>
		<g>
			<line class="st6" x1="385.6" y1="380.1" x2="385.6" y2="380.1"/>
			<line class="st7" x1="385.6" y1="384" x2="385.6" y2="512.2"/>
			<line class="st6" x1="385.6" y1="514.1" x2="385.6" y2="514.1"/>
		</g>
	</g>
	<g>
		<g>
			<line class="st6" x1="403.2" y1="380.1" x2="403.2" y2="380.1"/>
			<line class="st7" x1="403.2" y1="384" x2="403.2" y2="512.2"/>
			<line class="st6" x1="403.2" y1="514.1" x2="403.2" y2="514.1"/>
		</g>
	</g>
	<g>
		<g>
			<line class="st6" x1="420.8" y1="380.1" x2="420.8" y2="380.1"/>
			<line class="st7" x1="420.8" y1="384" x2="420.8" y2="512.2"/>
			<line class="st6" x1="420.8" y1="514.1" x2="420.8" y2="514.1"/>
		</g>
	</g>
	<g>
		<g>
			<line class="st6" x1="438.4" y1="380.1" x2="438.4" y2="380.1"/>
			<line class="st7" x1="438.4" y1="384" x2="438.4" y2="512.2"/>
			<line class="st6" x1="438.4" y1="514.1" x2="438.4" y2="514.1"/>
		</g>
	</g>
	<g>
		<g>
			<line class="st6" x1="456" y1="380.1" x2="456" y2="380.1"/>
			<line class="st7" x1="456" y1="384" x2="456" y2="512.2"/>
			<line class="st6" x1="456" y1="514.1" x2="456" y2="514.1"/>
		</g>
	</g>
	<g>
		<g>
			<line class="st6" x1="473.6" y1="380.1" x2="473.6" y2="380.1"/>
			<line class="st7" x1="473.6" y1="384" x2="473.6" y2="512.2"/>
			<line class="st6" x1="473.6" y1="514.1" x2="473.6" y2="514.1"/>
		</g>
	</g>
	<g>
		<g>
			<line class="st6" x1="491.2" y1="380.1" x2="491.2" y2="380.1"/>
			<line class="st7" x1="491.2" y1="384" x2="491.2" y2="512.2"/>
			<line class="st6" x1="491.2" y1="514.1" x2="491.2" y2="514.1"/>
		</g>
	</g>
	<g>
		<g>
			<line class="st6" x1="508.8" y1="380.1" x2="508.8" y2="380.1"/>
			<line class="st7" x1="508.8" y1="384" x2="508.8" y2="512.2"/>
			<line class="st6" x1="508.8" y1="514.1" x2="508.8" y2="514.1"/>
		</g>
	</g>
	<g>
		<g>
			<line class="st6" x1="526.4" y1="380.1" x2="526.4" y2="380.1"/>
			<line class="st7" x1="526.4" y1="384" x2="526.4" y2="512.2"/>
			<line class="st6" x1="526.4" y1="514.1" x2="526.4" y2="514.1"/>
		</g>
	</g>
	<g>
		<g>
			<line class="st6" x1="544" y1="380.1" x2="544" y2="380.1"/>
			<line class="st7" x1="544" y1="384" x2="544" y2="512.2"/>
			<line class="st6" x1="544" y1="514.1" x2="544" y2="514.1"/>
		</g>
	</g>
	<g>
		<g>
			<line class="st6" x1="561.6" y1="380.1" x2="561.6" y2="380.1"/>
			<line class="st7" x1="561.6" y1="384" x2="561.6" y2="512.2"/>
			<line class="st6" x1="561.6" y1="514.1" x2="561.6" y2="514.1"/>
		</g>
	</g>
	<g>
		<g>
			<line class="st6" x1="579.3" y1="380.1" x2="579.3" y2="380.1"/>
			<line class="st7" x1="579.3" y1="384" x2="579.3" y2="512.2"/>
			<line class="st6" x1="579.3" y1="514.1" x2="579.3" y2="514.1"/>
		</g>
	</g>
	<g>
		<g>
			<line class="st6" x1="596.9" y1="380.1" x2="596.9" y2="380.1"/>
			<line class="st7" x1="596.9" y1="384" x2="596.9" y2="512.2"/>
			<line class="st6" x1="596.9" y1="514.1" x2="596.9" y2="514.1"/>
		</g>
	</g>
	<g>
		<g>
			<line class="st6" x1="614.5" y1="380.1" x2="614.5" y2="380.1"/>
			<line class="st7" x1="614.5" y1="384" x2="614.5" y2="512.2"/>
			<line class="st6" x1="614.5" y1="514.1" x2="614.5" y2="514.1"/>
		</g>
	</g>
	<g>
		<g>
			<line class="st6" x1="632.1" y1="380.1" x2="632.1" y2="380.1"/>
			<line class="st7" x1="632.1" y1="384" x2="632.1" y2="512.2"/>
			<line class="st6" x1="632.1" y1="514.1" x2="632.1" y2="514.1"/>
		</g>
	</g>
	<g>
		<g>
			<line class="st6" x1="649.7" y1="380.1" x2="649.7" y2="380.1"/>
			<line class="st7" x1="649.7" y1="384" x2="649.7" y2="512.2"/>
			<line class="st6" x1="649.7" y1="514.1" x2="649.7" y2="514.1"/>
		</g>
	</g>
	<g>
		<g>
			<g>
				<path class="st3" d="M143.2,420.7v-12.6h2.3v12.6H143.2z"/>
				<path class="st3" d="M147.4,420.7v-2l3.7-7c0.3-0.6,0.6-1.2,0.9-1.6c-0.5,0-1,0-1.6,0h-2.6v-2h6.6v2l-3.6,7
					c-0.3,0.6-0.6,1.2-0.9,1.6c0.5,0,1,0,1.6,0h2.9v2H147.4z"/>
				<path class="st3" d="M161.4,420.7v-9.4h-1.7v-1.4c1.2-0.1,1.8-0.9,2-1.8h1.9v12.6H161.4z"/>
			</g>
		</g>
		<g>
			<g>
				<path class="st2" d="M143.2,453.6V441h2.3v12.6H143.2z"/>
				<path class="st2" d="M147.4,453.6v-2l3.7-7c0.3-0.6,0.6-1.2,0.9-1.6c-0.5,0-1,0-1.6,0h-2.6v-2h6.6v2l-3.6,7
					c-0.3,0.6-0.6,1.2-0.9,1.6c0.5,0,1,0,1.6,0h2.9v2H147.4z"/>
				<path class="st2" d="M161.4,453.6v-9.4h-1.7v-1.4c1.2-0.1,1.8-0.9,2-1.8h1.9v12.6H161.4z"/>
			</g>
		</g>
		<g>
			<g>
				<path class="st4" d="M143.2,486.5v-12.6h2.3v12.6H143.2z"/>
				<path class="st4" d="M147.4,486.5v-2l3.7-7c0.3-0.6,0.6-1.2,0.9-1.6c-0.5,0-1,0-1.6,0h-2.6v-2h6.6v2l-3.6,7
					c-0.3,0.6-0.6,1.2-0.9,1.6c0.5,0,1,0,1.6,0h2.9v2H147.4z"/>
				<path class="st4" d="M161.4,486.5v-9.4h-1.7v-1.4c1.2-0.1,1.8-0.9,2-1.8h1.9v12.6H161.4z"/>
			</g>
		</g>
		<rect x="174.3" y="404.2" class="st3" width="405.4" height="20.1"/>
		<rect x="209.5" y="437.1" class="st2" width="405.4" height="20.1"/>
		<rect x="244.7" y="469.8" class="st4" width="405.4" height="20.1"/>
		<g>
			<g>
				<path class="st8" d="M180.5,419.5v-7.1h-1.7V411c1.1-0.1,1.8-0.5,2-1.3h1.6v9.8H180.5z"/>
				<path class="st8" d="M184.5,419.5c0.1-3.4,2.1-4.8,4.5-5.9c0.8-0.4,1.1-0.8,1.1-1.2c0-0.5-0.4-1-1.6-1c-1.2,0-2.1,0.5-2.8,1.2
					l-1.3-1.5c1-1.1,2.4-1.6,4-1.6c2.3,0,3.6,0.9,3.6,2.8c0,1.6-0.9,2.3-2.5,3c-1.7,0.8-2.4,1.5-2.6,2.2h5.2v1.9H184.5z"/>
				<path class="st8" d="M205.1,419.5l-0.8-2.2h-3.6l-0.8,2.2h-2.1l3.8-9.8h1.9l3.7,9.8H205.1z M203,413.7c-0.2-0.6-0.4-1.2-0.5-1.5
					c-0.1,0.4-0.3,1-0.5,1.5l-0.6,1.8h2.2L203,413.7z"/>
				<path class="st8" d="M216.3,419.5v-3.6c0-0.5,0-1.8,0-2.2c-0.1,0.4-0.4,1.1-0.7,1.6l-2,4.4l-2-4.4c-0.3-0.6-0.5-1.3-0.7-1.6
					c0,0.4,0,1.6,0,2.2v3.6H209v-9.8h1.9l2,4.4c0.3,0.5,0.5,1.3,0.7,1.6c0.1-0.4,0.4-1.1,0.7-1.6l2-4.4h1.9v9.8H216.3z"/>
			</g>
		</g>
		<g>
			<g>
				<path class="st8" d="M541.8,419.5v-7.1h-1.7V411c1.1-0.1,1.8-0.5,2-1.3h1.6v9.8H541.8z"/>
				<path class="st8" d="M547.2,419.5v-7.1h-1.7V411c1.1-0.1,1.8-0.5,2-1.3h1.6v9.8H547.2z"/>
				<path class="st8" d="M559.8,416.1h-2.2v3.5h-2v-9.8h4.3c1.8,0,3.4,1,3.4,3.1C563.3,415.1,561.8,416.1,559.8,416.1z M559.9,411.6
					h-2.3v2.5h2.3c0.9,0,1.4-0.4,1.4-1.3S560.8,411.6,559.9,411.6z"/>
				<path class="st8" d="M572.4,419.5v-3.6c0-0.5,0-1.8,0-2.2c-0.1,0.4-0.4,1.1-0.7,1.6l-2,4.4l-2-4.4c-0.3-0.6-0.5-1.3-0.7-1.6
					c0,0.4,0,1.6,0,2.2v3.6h-1.9v-9.8h1.9l2,4.4c0.3,0.5,0.5,1.3,0.7,1.6c0.1-0.4,0.4-1.1,0.7-1.6l2-4.4h1.9v9.8H572.4z"/>
			</g>
		</g>
		<g>
			<g>
				<path class="st8" d="M215.7,452V445H214v-1.4c1.1-0.1,1.8-0.5,2-1.3h1.6v9.8H215.7z"/>
				<path class="st8" d="M219.8,452c0.1-3.4,2.1-4.8,4.5-5.9c0.8-0.4,1.1-0.8,1.1-1.2c0-0.5-0.4-1-1.6-1c-1.2,0-2.1,0.5-2.8,1.2
					l-1.3-1.5c1-1.1,2.4-1.6,4-1.6c2.3,0,3.6,0.9,3.6,2.8c0,1.6-0.9,2.3-2.5,3c-1.7,0.8-2.4,1.5-2.6,2.2h5.2v1.9H219.8z"/>
				<path class="st8" d="M240.3,452l-0.8-2.2h-3.6l-0.8,2.2h-2.1l3.8-9.8h1.9l3.7,9.8H240.3z M238.2,446.2c-0.2-0.6-0.4-1.2-0.5-1.5
					c-0.1,0.4-0.3,1-0.5,1.5l-0.6,1.8h2.2L238.2,446.2z"/>
				<path class="st8" d="M251.5,452v-3.6c0-0.5,0-1.8,0-2.2c-0.1,0.4-0.4,1.1-0.7,1.6l-2,4.4l-2-4.4c-0.3-0.6-0.5-1.3-0.7-1.6
					c0,0.4,0,1.6,0,2.2v3.6h-1.9v-9.8h1.9l2,4.4c0.3,0.5,0.5,1.3,0.7,1.6c0.1-0.4,0.4-1.1,0.7-1.6l2-4.4h1.9v9.8H251.5z"/>
			</g>
		</g>
		<g>
			<g>
				<path class="st8" d="M577,452V445h-1.7v-1.4c1.1-0.1,1.8-0.5,2-1.3h1.6v9.8H577z"/>
				<path class="st8" d="M582.4,452V445h-1.7v-1.4c1.1-0.1,1.8-0.5,2-1.3h1.6v9.8H582.4z"/>
				<path class="st8" d="M595,448.6h-2.2v3.5h-2v-9.8h4.3c1.8,0,3.4,1,3.4,3.1C598.6,447.6,597.1,448.6,595,448.6z M595.1,444.1
					h-2.3v2.5h2.3c0.9,0,1.4-0.4,1.4-1.3S596,444.1,595.1,444.1z"/>
				<path class="st8" d="M607.6,452v-3.6c0-0.5,0-1.8,0-2.2c-0.1,0.4-0.4,1.1-0.7,1.6l-2,4.4l-2-4.4c-0.3-0.6-0.5-1.3-0.7-1.6
					c0,0.4,0,1.6,0,2.2v3.6h-1.9v-9.8h1.9l2,4.4c0.3,0.5,0.5,1.3,0.7,1.6c0.1-0.4,0.4-1.1,0.7-1.6l2-4.4h1.9v9.8H607.6z"/>
			</g>
		</g>
		<g>
			<g>
				<path class="st8" d="M250.9,485.5v-7.1h-1.7V477c1.1-0.1,1.8-0.5,2-1.3h1.6v9.8H250.9z"/>
				<path class="st8" d="M255,485.5c0.1-3.4,2.1-4.8,4.5-5.9c0.8-0.4,1.1-0.8,1.1-1.2c0-0.5-0.4-1-1.6-1c-1.2,0-2.1,0.5-2.8,1.2
					l-1.3-1.5c1-1.1,2.4-1.6,4-1.6c2.3,0,3.6,0.9,3.6,2.8c0,1.6-0.9,2.3-2.5,3c-1.7,0.8-2.4,1.5-2.6,2.2h5.2v1.9H255z"/>
				<path class="st8" d="M275.5,485.5l-0.8-2.2h-3.6l-0.8,2.2h-2.1l3.8-9.8h1.9l3.7,9.8H275.5z M273.4,479.7
					c-0.2-0.6-0.4-1.2-0.5-1.5c-0.1,0.4-0.3,1-0.5,1.5l-0.6,1.8h2.2L273.4,479.7z"/>
				<path class="st8" d="M286.7,485.5v-3.6c0-0.5,0-1.8,0-2.2c-0.1,0.4-0.4,1.1-0.7,1.6l-2,4.4l-2-4.4c-0.3-0.6-0.5-1.3-0.7-1.6
					c0,0.4,0,1.6,0,2.2v3.6h-1.9v-9.8h1.9l2,4.4c0.3,0.5,0.5,1.3,0.7,1.6c0.1-0.4,0.4-1.1,0.7-1.6l2-4.4h1.9v9.8H286.7z"/>
			</g>
		</g>
		<g>
			<g>
				<path class="st8" d="M612.2,485.5v-7.1h-1.7V477c1.1-0.1,1.8-0.5,2-1.3h1.6v9.8H612.2z"/>
				<path class="st8" d="M617.6,485.5v-7.1H616V477c1.1-0.1,1.8-0.5,2-1.3h1.6v9.8H617.6z"/>
				<path class="st8" d="M630.2,482.1h-2.2v3.5h-2v-9.8h4.3c1.8,0,3.4,1,3.4,3.1C633.8,481.1,632.3,482.1,630.2,482.1z M630.3,477.6
					h-2.3v2.5h2.3c0.9,0,1.4-0.4,1.4-1.3C631.8,478,631.2,477.6,630.3,477.6z"/>
				<path class="st8" d="M642.9,485.5v-3.6c0-0.5,0-1.8,0-2.2c-0.1,0.4-0.4,1.1-0.7,1.6l-2,4.4l-2-4.4c-0.3-0.6-0.5-1.3-0.7-1.6
					c0,0.4,0,1.6,0,2.2v3.6h-1.9v-9.8h1.9l2,4.4c0.3,0.5,0.5,1.3,0.7,1.6c0.1-0.4,0.4-1.1,0.7-1.6l2-4.4h1.9v9.8H642.9z"/>
			</g>
		</g>
	</g>
</g>
</svg>
