<?xml version="1.0" encoding="utf-8"?>
<!-- Generator: Adobe Illustrator 19.1.0, SVG Export Plug-In . SVG Version: 6.00 Build 0)  -->
<svg version="1.1" id="Layer_1" xmlns="http://www.w3.org/2000/svg" xmlns:xlink="http://www.w3.org/1999/xlink" x="0px" y="0px"
	 viewBox="0 0 792 612" style="enable-background:new 0 0 792 612;" xml:space="preserve">
<style type="text/css">
	.st0{fill:#FFA733;}
	.st1{fill:#FFFFFF;}
</style>
<g>
	<path class="st0" d="M467.4,305c0,33.9-27.5,61.4-61.4,61.4c-33.9,0-61.4-27.5-61.4-61.4s27.5-61.4,61.4-61.4
		C439.9,243.6,467.4,271.1,467.4,305"/>
</g>
<g>
	<g>
		<path class="st1" d="M379.1,316.7v-28h5v28H379.1z"/>
		<path class="st1" d="M388.4,316.7v-4.4l8.1-15.6c0.7-1.4,1.4-2.6,2-3.5c-1,0-2.2,0.1-3.6,0.1h-5.9v-4.5h14.6v4.4l-8,15.6
			c-0.7,1.4-1.4,2.6-2,3.5c1,0,2.2-0.1,3.6-0.1h6.5v4.5H388.4z"/>
		<path class="st1" d="M416.7,316.7c0.3-8.6,3-12.1,8.2-15.9c1.9-1.4,2.6-2.6,2.6-4.2c0-2.2-1.1-3.3-3.2-3.3c-1.8,0-3.2,1-4.5,2.5
			l-3.1-3.6c1.9-2.4,4.4-3.9,7.8-3.9c4.8,0,8.1,2.7,8.1,7.6c0,3.9-1.9,6.3-4.6,8.3c-3.8,2.8-5.5,4.7-5.7,7.7h10.4v4.9H416.7z"/>
	</g>
</g>
</svg>
