<?xml version="1.0" encoding="utf-8"?>
<!-- Generator: Adobe Illustrator 19.1.0, SVG Export Plug-In . SVG Version: 6.00 Build 0)  -->
<svg version="1.1" id="Layer_1" xmlns="http://www.w3.org/2000/svg" xmlns:xlink="http://www.w3.org/1999/xlink" x="0px" y="0px"
	 viewBox="0 0 792 612" style="enable-background:new 0 0 792 612;" xml:space="preserve">
<style type="text/css">
	.st0{fill:#03D3D8;}
	.st1{fill:#FFFFFF;}
</style>
<g>
	<path class="st0" d="M467.4,305c0,33.9-27.5,61.4-61.4,61.4c-33.9,0-61.4-27.5-61.4-61.4s27.5-61.4,61.4-61.4
		C439.9,243.6,467.4,271.1,467.4,305"/>
</g>
<g>
	<g>
		<path class="st1" d="M379.4,316.7v-28h5v28H379.4z"/>
		<path class="st1" d="M388.7,316.7v-4.4l8.1-15.6c0.7-1.4,1.4-2.6,2-3.5c-1,0-2.2,0.1-3.6,0.1h-5.9v-4.5H404v4.4l-8,15.6
			c-0.7,1.4-1.4,2.6-2,3.5c1,0,2.2-0.1,3.6-0.1h6.5v4.5H388.7z"/>
		<path class="st1" d="M424.4,317.1c-3.8,0-6.4-1.6-8.6-5.1l4-2.8c1.5,2.2,2.9,3,4.8,3c2.4,0,3.8-1.5,3.8-3.8c0-2.8-1.9-4-4.5-4H422
			v-4.8h2c2.3,0,3.6-1,3.6-3c0-1.8-0.9-3.3-3.3-3.3c-1.5,0-2.6,0.6-4,2.1l-3.4-3.4c2-2.3,4-3.6,7.8-3.6c4.8,0,8,3,8,7.6
			c0,3.2-1.6,5-3.9,5.8c2.4,0.7,4.7,2.7,4.7,6.6C433.4,313.8,430.1,317.1,424.4,317.1z"/>
	</g>
</g>
</svg>
