<?xml version="1.0" encoding="utf-8"?>
<!-- Generator: Adobe Illustrator 19.1.0, SVG Export Plug-In . SVG Version: 6.00 Build 0)  -->
<svg version="1.1" id="Layer_1" xmlns="http://www.w3.org/2000/svg" xmlns:xlink="http://www.w3.org/1999/xlink" x="0px" y="0px"
	 viewBox="0 0 792 612" style="enable-background:new 0 0 792 612;" xml:space="preserve">
<style type="text/css">
	.st0{fill:none;stroke:#8D74E8;stroke-width:4;stroke-miterlimit:10;}
	.st1{fill:none;stroke:#FFA733;stroke-width:4;stroke-miterlimit:10;}
	.st2{fill:none;stroke:#03D3D8;stroke-width:4;stroke-miterlimit:10;}
</style>
<g>
	<path class="st0" d="M386.8,306c0,10.6-8.6,19.3-19.3,19.3c-10.6,0-19.3-8.6-19.3-19.3s8.6-19.3,19.3-19.3
		C378.1,286.7,386.8,295.4,386.8,306"/>
	<g>
		<path class="st1" d="M415.3,306c0,10.6-8.6,19.3-19.3,19.3c-10.6,0-19.3-8.6-19.3-19.3s8.6-19.3,19.3-19.3
			C406.6,286.7,415.3,295.4,415.3,306"/>
	</g>
	<g>
		<path class="st2" d="M443.8,306c0,10.6-8.6,19.3-19.3,19.3c-10.6,0-19.3-8.6-19.3-19.3s8.6-19.3,19.3-19.3
			C435.2,286.7,443.8,295.4,443.8,306"/>
	</g>
</g>
</svg>
