<?xml version="1.0" encoding="UTF-8" standalone="no"?>
<svg width="508px" height="416px" viewBox="0 0 508 416" version="1.1" xmlns="http://www.w3.org/2000/svg" xmlns:xlink="http://www.w3.org/1999/xlink" xmlns:sketch="http://www.bohemiancoding.com/sketch/ns">
    <!-- Generator: Sketch 3.3.3 (12072) - http://www.bohemiancoding.com/sketch -->
    <title>Slice 1</title>
    <desc>Created with Sketch.</desc>
    <defs></defs>
    <g id="Page-1" stroke="none" stroke-width="1" fill="none" fill-rule="evenodd" sketch:type="MSPage">
        <g id="interzone_diagram1" sketch:type="MSLayerGroup">
            <g id="Group" sketch:type="MSShapeGroup">
                <path d="M223.1,146.2 C223.1,199.2 180.1,242.1 127.2,242.1 C74.2,242.1 31.3,199.2 31.3,146.2 C31.3,93.2 74.3,50.3 127.2,50.3 C180.2,50.3 223.1,93.3 223.1,146.2" id="Shape" stroke="#8D74E8" stroke-width="7"></path>
                <path d="M365,146.2 C365,199.2 322,242.1 269.1,242.1 C216.1,242.1 173.2,199.2 173.2,146.2 C173.2,93.2 216.2,50.3 269.1,50.3 C322,50.3 365,93.3 365,146.2" id="Shape" stroke="#FFA733" stroke-width="7"></path>
                <g transform="translate(231.000000, 0.000000)" id="Shape" fill="#FFA733">
                    <path d="M4,13.4 C2.3,13.4 1.1,12.5 0.2,11.4 L1.7,9.8 C2.5,10.8 3.3,11.2 4,11.2 C4.9,11.2 5.4,10.7 5.4,9.8 C5.4,9.1 5,8.5 3.5,7.7 C1.6,6.7 0.5,5.8 0.5,3.7 C0.5,1.8 1.9,0.3 4,0.3 C5.6,0.3 6.5,0.9 7.4,2.1 L5.9,3.6 C5.2,2.8 4.8,2.5 3.9,2.5 C3.2,2.5 2.7,3 2.7,3.6 C2.7,4.4 3.1,4.8 4.5,5.6 C6.7,6.8 7.6,7.6 7.6,9.8 C7.8,11.9 6.4,13.4 4,13.4 L4,13.4 Z"></path>
                    <path d="M13.4,2.7 L13.4,13.1 L11.1,13.1 L11.1,2.7 L8.5,2.7 L8.5,0.5 L16,0.5 L16,2.7 L13.4,2.7 L13.4,2.7 Z"></path>
                    <path d="M22,13.2 L21.4,10.6 L18.6,10.6 L18,13.2 L15.7,13.2 L18.9,0.6 L21.1,0.6 L24.3,13.2 L22,13.2 L22,13.2 Z M20.6,6.9 C20.4,5.9 20.1,4.5 20,3.8 C19.9,4.4 19.7,5.8 19.4,6.8 L19.1,8.3 L21,8.3 L20.6,6.9 L20.6,6.9 Z"></path>
                    <path d="M31.3,13.2 L29,7.6 C28.7,6.8 28.3,5.8 28,5 L28,7.9 L28,13.2 L26,13.2 L26,0.6 L28.3,0.6 L30.5,6.1 C30.8,6.9 31.3,8 31.5,8.7 C31.5,7.9 31.4,6.6 31.4,5.8 L31.4,0.6 L33.5,0.6 L33.5,13.2 L31.3,13.2 L31.3,13.2 Z"></path>
                    <path d="M38.6,13.2 L35.8,13.2 L35.8,0.6 L38.6,0.6 C41.6,0.6 43.4,2.5 43.4,6.9 C43.4,11.3 41.6,13.2 38.6,13.2 L38.6,13.2 Z M38.7,2.8 L38.1,2.8 L38.1,11 L38.7,11 C40.7,11 41.2,9.2 41.2,6.9 C41.2,4.6 40.7,2.8 38.7,2.8 L38.7,2.8 Z"></path>
                    <path d="M50.6,13.2 L50,10.6 L47.2,10.6 L46.6,13.2 L44.3,13.2 L47.5,0.6 L49.7,0.6 L52.9,13.2 L50.6,13.2 L50.6,13.2 Z M49.2,6.9 C49,5.9 48.7,4.5 48.6,3.8 C48.5,4.4 48.3,5.8 48,6.8 L47.7,8.3 L49.6,8.3 L49.2,6.9 L49.2,6.9 Z"></path>
                    <path d="M59.5,13.2 L57.5,8.4 L56.8,8.4 L56.8,13.2 L54.6,13.2 L54.6,0.6 L57.9,0.6 C60.3,0.6 61.9,1.9 61.9,4.5 C61.9,6.3 61,7.4 59.8,7.9 L62,13.1 L59.5,13.1 L59.5,13.2 Z M57.8,2.8 L56.8,2.8 L56.8,6.3 L57.9,6.3 C59.1,6.3 59.6,5.7 59.6,4.6 C59.7,3.4 59.2,2.8 57.8,2.8 L57.8,2.8 Z"></path>
                    <path d="M66.6,13.2 L63.8,13.2 L63.8,0.6 L66.6,0.6 C69.6,0.6 71.4,2.5 71.4,6.9 C71.4,11.3 69.5,13.2 66.6,13.2 L66.6,13.2 Z M66.6,2.8 L66,2.8 L66,11 L66.6,11 C68.6,11 69.1,9.2 69.1,6.9 C69.1,4.6 68.6,2.8 66.6,2.8 L66.6,2.8 Z"></path>
                    <path d="M26.8,21.1 L26.8,31.5 L24.5,31.5 L24.5,21.1 L21.9,21.1 L21.9,19 L29.4,19 L29.4,21.2 L26.8,21.2 L26.8,21.1 Z"></path>
                    <path d="M31.1,31.6 L31.1,19 L33.4,19 L33.4,31.6 L31.1,31.6 L31.1,31.6 Z"></path>
                    <path d="M42.9,31.6 L42.9,27.5 L42.9,23.7 C42.6,24.6 42.2,26 41.8,27.4 L40.3,31.9 L38.8,27.4 C38.3,26 37.9,24.6 37.7,23.7 L37.7,27.5 L37.7,31.6 L35.7,31.6 L35.7,19 L38,19 L39.5,23.7 C39.9,24.9 40.2,26 40.3,26.5 C40.4,25.9 40.8,24.8 41.1,23.7 L42.6,19 L44.8,19 L44.8,31.6 L42.9,31.6 L42.9,31.6 Z"></path>
                    <path d="M47.3,31.6 L47.3,19 L53.8,19 L53.8,21.2 L49.6,21.2 L49.6,23.9 L52.4,23.9 L52.4,26 L49.6,26 L49.6,29.5 L54,29.5 L54,31.7 L47.3,31.7 L47.3,31.6 Z"></path>
                </g>
                <g transform="translate(67.000000, 0.000000)" id="Shape" fill="#8D74E8">
                    <path d="M20.3,13.4 C18.6,13.4 17.4,12.5 16.5,11.4 L18,9.8 C18.8,10.8 19.6,11.2 20.3,11.2 C21.2,11.2 21.7,10.7 21.7,9.8 C21.7,9.1 21.3,8.5 19.8,7.7 C17.9,6.7 16.8,5.8 16.8,3.7 C16.8,1.8 18.2,0.3 20.3,0.3 C21.9,0.3 22.8,0.9 23.7,2.1 L22.2,3.6 C21.5,2.8 21.1,2.5 20.2,2.5 C19.5,2.5 19,3 19,3.6 C19,4.4 19.4,4.8 20.8,5.6 C23,6.8 23.9,7.6 23.9,9.8 C24.1,11.9 22.6,13.4 20.3,13.4 L20.3,13.4 Z"></path>
                    <path d="M29.6,2.7 L29.6,13.1 L27.3,13.1 L27.3,2.7 L24.7,2.7 L24.7,0.5 L32.2,0.5 L32.2,2.7 L29.6,2.7 L29.6,2.7 Z"></path>
                    <path d="M38.3,13.2 L37.7,10.6 L34.9,10.6 L34.3,13.2 L32,13.2 L35.2,0.6 L37.4,0.6 L40.6,13.2 L38.3,13.2 L38.3,13.2 Z M36.9,6.9 C36.7,5.9 36.4,4.5 36.3,3.8 C36.2,4.4 36,5.8 35.7,6.8 L35.4,8.3 L37.3,8.3 L36.9,6.9 L36.9,6.9 Z"></path>
                    <path d="M47.6,13.2 L45.3,7.6 C45,6.8 44.6,5.8 44.3,5 L44.3,7.9 L44.3,13.2 L42.2,13.2 L42.2,0.6 L44.5,0.6 L46.7,6.1 C47,6.9 47.5,8 47.7,8.7 C47.7,7.9 47.6,6.6 47.6,5.8 L47.6,0.6 L49.7,0.6 L49.7,13.2 L47.6,13.2 L47.6,13.2 Z"></path>
                    <path d="M54.9,13.2 L52.1,13.2 L52.1,0.6 L54.9,0.6 C57.9,0.6 59.7,2.5 59.7,6.9 C59.7,11.3 57.8,13.2 54.9,13.2 L54.9,13.2 Z M54.9,2.8 L54.3,2.8 L54.3,11 L54.9,11 C56.9,11 57.4,9.2 57.4,6.9 C57.4,4.6 57,2.8 54.9,2.8 L54.9,2.8 Z"></path>
                    <path d="M66.9,13.2 L66.3,10.6 L63.5,10.6 L62.9,13.2 L60.6,13.2 L63.8,0.6 L66,0.6 L69.2,13.2 L66.9,13.2 L66.9,13.2 Z M65.4,6.9 C65.2,5.9 64.9,4.5 64.8,3.8 C64.7,4.4 64.5,5.8 64.2,6.8 L63.9,8.3 L65.8,8.3 L65.4,6.9 L65.4,6.9 Z"></path>
                    <path d="M75.8,13.2 L73.8,8.4 L73.1,8.4 L73.1,13.2 L70.8,13.2 L70.8,0.6 L74.1,0.6 C76.5,0.6 78.1,1.9 78.1,4.5 C78.1,6.3 77.2,7.4 76,7.9 L78.2,13.1 L75.8,13.1 L75.8,13.2 Z M74.1,2.8 L73.1,2.8 L73.1,6.3 L74.2,6.3 C75.4,6.3 75.9,5.7 75.9,4.6 C76,3.4 75.5,2.8 74.1,2.8 L74.1,2.8 Z"></path>
                    <path d="M82.8,13.2 L80,13.2 L80,0.6 L82.8,0.6 C85.8,0.6 87.6,2.5 87.6,6.9 C87.6,11.3 85.8,13.2 82.8,13.2 L82.8,13.2 Z M82.9,2.8 L82.3,2.8 L82.3,11 L82.9,11 C84.9,11 85.4,9.2 85.4,6.9 C85.4,4.6 84.9,2.8 82.9,2.8 L82.9,2.8 Z"></path>
                    <path d="M4.9,21.1 L4.9,31.5 L2.6,31.5 L2.6,21.1 L0,21.1 L0,19 L7.5,19 L7.5,21.2 L4.9,21.2 L4.9,21.1 Z"></path>
                    <path d="M9.2,31.6 L9.2,19 L11.5,19 L11.5,31.6 L9.2,31.6 L9.2,31.6 Z"></path>
                    <path d="M21,31.6 L21,27.5 L21,23.7 C20.7,24.6 20.3,26 19.9,27.4 L18.4,31.9 L16.9,27.4 C16.4,26 16,24.6 15.8,23.7 L15.8,27.5 L15.8,31.6 L13.8,31.6 L13.8,19 L16.1,19 L17.6,23.7 C18,24.9 18.3,26 18.4,26.5 C18.5,25.9 18.9,24.8 19.2,23.7 L20.7,19 L22.9,19 L22.9,31.6 L21,31.6 L21,31.6 Z"></path>
                    <path d="M25.4,31.6 L25.4,19 L31.9,19 L31.9,21.2 L27.7,21.2 L27.7,23.9 L30.5,23.9 L30.5,26 L27.7,26 L27.7,29.5 L32.1,29.5 L32.1,31.7 L25.4,31.7 L25.4,31.6 Z"></path>
                    <path d="M37.8,26.2 L37.8,23.9 L43.7,23.9 L43.7,26.2 L37.8,26.2 L37.8,26.2 Z"></path>
                    <path d="M49.5,31.6 C49.6,27.7 50.8,26.1 53.2,24.4 C54.1,23.8 54.4,23.2 54.4,22.5 C54.4,21.5 53.9,21 53,21 C52.2,21 51.6,21.5 51,22.1 L49.6,20.5 C50.4,19.4 51.6,18.8 53.1,18.8 C55.3,18.8 56.7,20 56.7,22.2 C56.7,23.9 55.8,25 54.6,25.9 C52.9,27.2 52.1,28 52,29.4 L56.7,29.4 L56.7,31.6 L49.5,31.6 L49.5,31.6 Z"></path>
                    <path d="M68.5,31.6 L68.5,26.2 L65.6,26.2 L65.6,31.6 L63.3,31.6 L63.3,19 L65.6,19 L65.6,24 L68.5,24 L68.5,19 L70.8,19 L70.8,31.6 L68.5,31.6 L68.5,31.6 Z"></path>
                    <path d="M76.8,31.8 C73.9,31.8 72.6,28.9 72.6,25.3 C72.6,21.7 73.9,18.8 76.8,18.8 C79.7,18.8 81,21.7 81,25.3 C81,28.9 79.7,31.8 76.8,31.8 L76.8,31.8 Z M76.8,21 C75.4,21 74.9,22.5 74.9,25.2 C74.9,27.9 75.5,29.5 76.8,29.5 C78.1,29.5 78.7,28 78.7,25.3 C78.7,22.6 78.1,21 76.8,21 L76.8,21 Z"></path>
                    <path d="M86.5,31.8 C83.8,31.8 82.8,29.7 82.8,26.6 L82.8,19 L85.1,19 L85.1,26.6 C85.1,28.8 85.6,29.6 86.6,29.6 C87.6,29.6 88.1,28.8 88.1,26.6 L88.1,19 L90.4,19 L90.4,26.6 C90.3,29.8 89.3,31.8 86.5,31.8 L86.5,31.8 Z"></path>
                    <path d="M97.5,31.6 L95.5,26.8 L94.8,26.8 L94.8,31.6 L92.5,31.6 L92.5,19 L95.8,19 C98.2,19 99.8,20.3 99.8,22.9 C99.8,24.7 98.9,25.8 97.7,26.3 L99.9,31.5 L97.5,31.5 L97.5,31.6 Z M95.8,21.2 L94.8,21.2 L94.8,24.7 L95.9,24.7 C97.1,24.7 97.6,24.1 97.6,23 C97.7,21.8 97.2,21.2 95.8,21.2 L95.8,21.2 Z"></path>
                    <path d="M104.8,31.8 C103.1,31.8 101.9,30.9 101,29.8 L102.5,28.2 C103.3,29.2 104.1,29.6 104.8,29.6 C105.7,29.6 106.2,29.1 106.2,28.2 C106.2,27.5 105.7,26.9 104.3,26.1 C102.4,25.1 101.3,24.2 101.3,22.1 C101.3,20.2 102.7,18.7 104.8,18.7 C106.4,18.7 107.3,19.3 108.2,20.5 L106.7,22 C106,21.2 105.6,20.9 104.7,20.9 C104,20.9 103.5,21.4 103.5,22 C103.5,22.8 103.9,23.2 105.3,24 C107.5,25.2 108.4,26 108.4,28.2 C108.6,30.3 107.1,31.8 104.8,31.8 L104.8,31.8 Z"></path>
                </g>
                <g transform="translate(104.000000, 129.000000)" id="Shape" fill="#8D74E8">
                    <path d="M0.4,28.9 L0.4,0.9 L5.4,0.9 L5.4,28.9 L0.4,28.9 L0.4,28.9 Z"></path>
                    <path d="M9.7,28.9 L9.7,24.5 L17.8,8.9 C18.5,7.5 19.2,6.3 19.8,5.4 C18.8,5.4 17.6,5.5 16.2,5.5 L10.3,5.5 L10.3,1 L25,1 L25,5.4 L17,21 C16.3,22.4 15.6,23.6 15,24.5 C16,24.5 17.2,24.4 18.6,24.4 L25.1,24.4 L25.1,28.9 L9.7,28.9 L9.7,28.9 Z"></path>
                    <path d="M40.9,28.9 L40.9,8.1 L37.1,8.1 L37.1,5 C39.9,4.7 41.1,3 41.6,1 L45.9,1 L45.9,29 L40.9,29 L40.9,28.9 Z"></path>
                </g>
                <g transform="translate(242.000000, 129.000000)" id="Shape" fill="#FFA733">
                    <path d="M0.2,28.9 L0.2,0.9 L5.2,0.9 L5.2,28.9 L0.2,28.9 L0.2,28.9 Z"></path>
                    <path d="M9.5,28.9 L9.5,24.5 L17.6,8.9 C18.3,7.5 19,6.3 19.6,5.4 C18.6,5.4 17.4,5.5 16,5.5 L10.1,5.5 L10.1,1 L24.7,1 L24.7,5.4 L16.7,21 C16,22.4 15.3,23.6 14.7,24.5 C15.7,24.5 16.9,24.4 18.3,24.4 L24.8,24.4 L24.8,28.9 L9.5,28.9 L9.5,28.9 Z"></path>
                    <path d="M37.7,28.9 C38,20.3 40.7,16.8 45.9,13 C47.8,11.6 48.5,10.4 48.5,8.8 C48.5,6.6 47.4,5.5 45.3,5.5 C43.5,5.5 42.1,6.5 40.8,8 L37.7,4.4 C39.6,2 42.1,0.5 45.5,0.5 C50.3,0.5 53.6,3.2 53.6,8.1 C53.6,12 51.7,14.4 49,16.4 C45.2,19.2 43.5,21.1 43.3,24.1 L53.7,24.1 L53.7,29 L37.7,29 L37.7,28.9 Z"></path>
                </g>
                <g transform="translate(384.000000, 129.000000)" id="Shape" fill="#03D3D8">
                    <path d="M0.3,28.9 L0.3,0.9 L5.3,0.9 L5.3,28.9 L0.3,28.9 L0.3,28.9 Z"></path>
                    <path d="M9.6,28.9 L9.6,24.5 L17.7,8.9 C18.4,7.5 19.1,6.3 19.7,5.4 C18.7,5.4 17.5,5.5 16.1,5.5 L10.2,5.5 L10.2,1 L24.8,1 L24.8,5.4 L16.8,21 C16.1,22.4 15.4,23.6 14.8,24.5 C15.8,24.5 17,24.4 18.4,24.4 L24.9,24.4 L24.9,28.9 L9.6,28.9 L9.6,28.9 Z"></path>
                    <path d="M45.3,29.4 C41.5,29.4 38.9,27.8 36.7,24.3 L40.7,21.5 C42.2,23.7 43.6,24.5 45.5,24.5 C47.9,24.5 49.3,23 49.3,20.7 C49.3,17.9 47.4,16.7 44.8,16.7 L42.9,16.7 L42.9,11.9 L44.9,11.9 C47.2,11.9 48.5,10.9 48.5,8.9 C48.5,7.1 47.6,5.6 45.2,5.6 C43.7,5.6 42.6,6.2 41.2,7.7 L37.8,4.3 C39.8,2 41.8,0.7 45.6,0.7 C50.4,0.7 53.6,3.7 53.6,8.3 C53.6,11.5 52,13.3 49.7,14.1 C52.1,14.8 54.4,16.8 54.4,20.7 C54.3,26 51,29.4 45.3,29.4 L45.3,29.4 Z"></path>
                </g>
                <g transform="translate(355.000000, 0.000000)" id="Shape" fill="#03D3D8">
                    <path d="M21.9,13.4 C20.2,13.4 19,12.5 18.1,11.4 L19.6,9.8 C20.4,10.8 21.2,11.2 21.9,11.2 C22.8,11.2 23.3,10.7 23.3,9.8 C23.3,9.1 22.8,8.5 21.4,7.7 C19.5,6.7 18.4,5.8 18.4,3.7 C18.4,1.8 19.8,0.3 21.9,0.3 C23.5,0.3 24.4,0.9 25.3,2.1 L23.8,3.6 C23.1,2.8 22.7,2.5 21.8,2.5 C21.1,2.5 20.6,3 20.6,3.6 C20.6,4.4 21,4.8 22.4,5.6 C24.6,6.8 25.5,7.6 25.5,9.8 C25.7,11.9 24.2,13.4 21.9,13.4 L21.9,13.4 Z"></path>
                    <path d="M31.2,2.7 L31.2,13.1 L29,13.1 L29,2.7 L26.4,2.7 L26.4,0.5 L33.9,0.5 L33.9,2.7 L31.2,2.7 L31.2,2.7 Z"></path>
                    <path d="M39.9,13.2 L39.3,10.6 L36.5,10.6 L35.9,13.2 L33.6,13.2 L36.8,0.6 L39,0.6 L42.2,13.2 L39.9,13.2 L39.9,13.2 Z M38.5,6.9 C38.3,5.9 38,4.5 37.9,3.8 C37.8,4.4 37.6,5.8 37.3,6.8 L37,8.3 L38.9,8.3 L38.5,6.9 L38.5,6.9 Z"></path>
                    <path d="M49.2,13.2 L46.9,7.6 C46.6,6.8 46.2,5.8 45.9,5 L45.9,7.9 L45.9,13.2 L43.8,13.2 L43.8,0.6 L46.1,0.6 L48.3,6.1 C48.6,6.9 49.1,8 49.3,8.7 C49.3,7.9 49.2,6.6 49.2,5.8 L49.2,0.6 L51.3,0.6 L51.3,13.2 L49.2,13.2 L49.2,13.2 Z"></path>
                    <path d="M56.5,13.2 L53.7,13.2 L53.7,0.6 L56.5,0.6 C59.5,0.6 61.3,2.5 61.3,6.9 C61.3,11.3 59.4,13.2 56.5,13.2 L56.5,13.2 Z M56.5,2.8 L55.9,2.8 L55.9,11 L56.5,11 C58.5,11 59,9.2 59,6.9 C59,4.6 58.5,2.8 56.5,2.8 L56.5,2.8 Z"></path>
                    <path d="M68.5,13.2 L67.9,10.6 L65,10.6 L64.4,13.2 L62.1,13.2 L65.3,0.6 L67.5,0.6 L70.7,13.2 L68.5,13.2 L68.5,13.2 Z M67,6.9 C66.8,5.9 66.5,4.5 66.4,3.8 C66.3,4.4 66.1,5.8 65.8,6.8 L65.5,8.3 L67.4,8.3 L67,6.9 L67,6.9 Z"></path>
                    <path d="M77.4,13.2 L75.4,8.4 L74.7,8.4 L74.7,13.2 L72.4,13.2 L72.4,0.6 L75.7,0.6 C78.1,0.6 79.7,1.9 79.7,4.5 C79.7,6.3 78.8,7.4 77.6,7.9 L79.8,13.1 L77.4,13.1 L77.4,13.2 Z M75.7,2.8 L74.7,2.8 L74.7,6.3 L75.8,6.3 C77,6.3 77.5,5.7 77.5,4.6 C77.6,3.4 77,2.8 75.7,2.8 L75.7,2.8 Z"></path>
                    <path d="M84.4,13.2 L81.6,13.2 L81.6,0.6 L84.4,0.6 C87.4,0.6 89.2,2.5 89.2,6.9 C89.2,11.3 87.4,13.2 84.4,13.2 L84.4,13.2 Z M84.5,2.8 L83.9,2.8 L83.9,11 L84.5,11 C86.5,11 87,9.2 87,6.9 C87,4.6 86.5,2.8 84.5,2.8 L84.5,2.8 Z"></path>
                    <path d="M5.7,21.1 L5.7,31.5 L3.5,31.5 L3.5,21.1 L0.9,21.1 L0.9,19 L8.4,19 L8.4,21.2 L5.7,21.2 L5.7,21.1 Z"></path>
                    <path d="M10,31.6 L10,19 L12.3,19 L12.3,31.6 L10,31.6 L10,31.6 Z"></path>
                    <path d="M21.8,31.6 L21.8,27.5 L21.8,23.7 C21.5,24.6 21.1,26 20.7,27.4 L19.2,31.9 L17.7,27.4 C17.2,26 16.8,24.6 16.6,23.7 L16.6,27.5 L16.6,31.6 L14.6,31.6 L14.6,19 L16.9,19 L18.4,23.7 C18.8,24.9 19.1,26 19.2,26.5 C19.3,25.9 19.7,24.8 20,23.7 L21.5,19 L23.7,19 L23.7,31.6 L21.8,31.6 L21.8,31.6 Z"></path>
                    <path d="M26.2,31.6 L26.2,19 L32.7,19 L32.7,21.2 L28.5,21.2 L28.5,23.9 L31.3,23.9 L31.3,26 L28.5,26 L28.5,29.5 L32.9,29.5 L32.9,31.7 L26.2,31.7 L26.2,31.6 Z"></path>
                    <path d="M43.4,26.4 L43.4,29.6 L41.3,29.6 L41.3,26.4 L38.4,26.4 L38.4,24.3 L41.3,24.3 L41.3,21.1 L43.4,21.1 L43.4,24.3 L46.3,24.3 L46.3,26.4 L43.4,26.4 L43.4,26.4 Z"></path>
                    <path d="M51.9,31.6 C52,27.7 53.2,26.1 55.6,24.4 C56.5,23.8 56.8,23.2 56.8,22.5 C56.8,21.5 56.3,21 55.4,21 C54.6,21 54,21.5 53.4,22.1 L52,20.5 C52.8,19.4 54,18.8 55.5,18.8 C57.7,18.8 59.1,20 59.1,22.2 C59.1,23.9 58.2,25 57,25.9 C55.3,27.2 54.5,28 54.4,29.4 L59.1,29.4 L59.1,31.6 L51.9,31.6 L51.9,31.6 Z"></path>
                    <path d="M70.9,31.6 L70.9,26.2 L68,26.2 L68,31.6 L65.7,31.6 L65.7,19 L68,19 L68,24 L70.9,24 L70.9,19 L73.2,19 L73.2,31.6 L70.9,31.6 L70.9,31.6 Z"></path>
                    <path d="M79.2,31.8 C76.3,31.8 75,28.9 75,25.3 C75,21.7 76.3,18.8 79.2,18.8 C82.1,18.8 83.4,21.7 83.4,25.3 C83.4,28.9 82.1,31.8 79.2,31.8 L79.2,31.8 Z M79.2,21 C77.8,21 77.3,22.5 77.3,25.2 C77.3,27.9 77.9,29.5 79.2,29.5 C80.5,29.5 81.1,28 81.1,25.3 C81.1,22.6 80.5,21 79.2,21 L79.2,21 Z"></path>
                    <path d="M89,31.8 C86.3,31.8 85.3,29.7 85.3,26.6 L85.3,19 L87.6,19 L87.6,26.6 C87.6,28.8 88.1,29.6 89.1,29.6 C90.1,29.6 90.6,28.8 90.6,26.6 L90.6,19 L92.9,19 L92.9,26.6 C92.7,29.8 91.7,31.8 89,31.8 L89,31.8 Z"></path>
                    <path d="M100,31.6 L98,26.8 L97.3,26.8 L97.3,31.6 L95,31.6 L95,19 L98.3,19 C100.7,19 102.3,20.3 102.3,22.9 C102.3,24.7 101.4,25.8 100.2,26.3 L102.4,31.5 L100,31.5 L100,31.6 Z M98.2,21.2 L97.2,21.2 L97.2,24.7 L98.3,24.7 C99.5,24.7 100,24.1 100,23 C100.1,21.8 99.6,21.2 98.2,21.2 L98.2,21.2 Z"></path>
                    <path d="M107.2,31.8 C105.5,31.8 104.3,30.9 103.4,29.8 L104.9,28.2 C105.7,29.2 106.5,29.6 107.2,29.6 C108.1,29.6 108.6,29.1 108.6,28.2 C108.6,27.5 108.1,26.9 106.7,26.1 C104.8,25.1 103.7,24.2 103.7,22.1 C103.7,20.2 105.1,18.7 107.2,18.7 C108.8,18.7 109.7,19.3 110.6,20.5 L109.1,22 C108.4,21.2 108,20.9 107.1,20.9 C106.4,20.9 105.9,21.4 105.9,22 C105.9,22.8 106.3,23.2 107.7,24 C109.9,25.2 110.8,26 110.8,28.2 C111,30.3 109.5,31.8 107.2,31.8 L107.2,31.8 Z"></path>
                </g>
                <path d="M506.8,146.2 C506.8,199.2 463.8,242.1 410.9,242.1 C357.9,242.1 315,199.2 315,146.2 C315,93.2 358,50.3 410.9,50.3 C463.9,50.3 506.8,93.3 506.8,146.2" id="Shape" stroke="#03D3D8" stroke-width="7"></path>
                <g transform="translate(31.000000, 280.000000)" id="Shape" stroke="#231F20">
                    <path></path>
                    <path d="M0.3,4 L0.3,132.2" stroke-dasharray="0,3.9424"></path>
                    <path></path>
                </g>
                <g transform="translate(48.000000, 280.000000)" id="Shape" stroke="#231F20">
                    <path></path>
                    <path d="M0.9,4 L0.9,132.2" stroke-dasharray="0,3.9424"></path>
                    <path></path>
                </g>
                <g transform="translate(66.000000, 280.000000)" id="Shape" stroke="#231F20">
                    <path></path>
                    <path d="M0.5,4 L0.5,132.2" stroke-dasharray="0,3.9424"></path>
                    <path></path>
                </g>
                <g transform="translate(84.000000, 280.000000)" id="Shape" stroke="#231F20">
                    <path></path>
                    <path d="M0.1,4 L0.1,132.2" stroke-dasharray="0,3.9424"></path>
                    <path></path>
                </g>
                <g transform="translate(101.000000, 280.000000)" id="Shape" stroke="#231F20">
                    <path></path>
                    <path d="M0.7,4 L0.7,132.2" stroke-dasharray="0,3.9424"></path>
                    <path></path>
                </g>
                <g transform="translate(119.000000, 280.000000)" id="Shape" stroke="#231F20">
                    <path></path>
                    <path d="M0.3,4 L0.3,132.2" stroke-dasharray="0,3.9424"></path>
                    <path></path>
                </g>
                <g transform="translate(136.000000, 280.000000)" id="Shape" stroke="#231F20">
                    <path></path>
                    <path d="M0.9,4 L0.9,132.2" stroke-dasharray="0,3.9424"></path>
                    <path></path>
                </g>
                <g transform="translate(154.000000, 280.000000)" id="Shape" stroke="#231F20">
                    <path></path>
                    <path d="M0.5,4 L0.5,132.2" stroke-dasharray="0,3.9424"></path>
                    <path></path>
                </g>
                <g transform="translate(172.000000, 280.000000)" id="Shape" stroke="#231F20">
                    <path></path>
                    <path d="M0.1,4 L0.1,132.2" stroke-dasharray="0,3.9424"></path>
                    <path></path>
                </g>
                <g transform="translate(189.000000, 280.000000)" id="Shape" stroke="#231F20">
                    <path></path>
                    <path d="M0.7,4 L0.7,132.2" stroke-dasharray="0,3.9424"></path>
                    <path></path>
                </g>
                <g transform="translate(207.000000, 280.000000)" id="Shape" stroke="#231F20">
                    <path></path>
                    <path d="M0.3,4 L0.3,132.2" stroke-dasharray="0,3.9424"></path>
                    <path></path>
                </g>
                <g transform="translate(225.000000, 280.000000)" id="Shape" stroke="#231F20">
                    <path></path>
                    <path d="M0,4 L0,132.2" stroke-dasharray="0,3.9424"></path>
                    <path></path>
                </g>
                <g transform="translate(242.000000, 280.000000)" id="Shape" stroke="#231F20">
                    <path></path>
                    <path d="M0.6,4 L0.6,132.2" stroke-dasharray="0,3.9424"></path>
                    <path></path>
                </g>
                <g transform="translate(260.000000, 280.000000)" id="Shape" stroke="#231F20">
                    <path></path>
                    <path d="M0.2,4 L0.2,132.2" stroke-dasharray="0,3.9424"></path>
                    <path></path>
                </g>
                <g transform="translate(277.000000, 280.000000)" id="Shape" stroke="#231F20">
                    <path></path>
                    <path d="M0.8,4 L0.8,132.2" stroke-dasharray="0,3.9424"></path>
                    <path></path>
                </g>
                <g transform="translate(295.000000, 280.000000)" id="Shape" stroke="#231F20">
                    <path></path>
                    <path d="M0.4,4 L0.4,132.2" stroke-dasharray="0,3.9424"></path>
                    <path></path>
                </g>
                <g transform="translate(313.000000, 280.000000)" id="Shape" stroke="#231F20">
                    <path></path>
                    <path d="M0,4 L0,132.2" stroke-dasharray="0,3.9424"></path>
                    <path></path>
                </g>
                <g transform="translate(330.000000, 280.000000)" id="Shape" stroke="#231F20">
                    <path></path>
                    <path d="M0.6,4 L0.6,132.2" stroke-dasharray="0,3.9424"></path>
                    <path></path>
                </g>
                <g transform="translate(348.000000, 280.000000)" id="Shape" stroke="#231F20">
                    <path></path>
                    <path d="M0.2,4 L0.2,132.2" stroke-dasharray="0,3.9424"></path>
                    <path></path>
                </g>
                <g transform="translate(365.000000, 280.000000)" id="Shape" stroke="#231F20">
                    <path></path>
                    <path d="M0.8,4 L0.8,132.2" stroke-dasharray="0,3.9424"></path>
                    <path></path>
                </g>
                <g transform="translate(383.000000, 280.000000)" id="Shape" stroke="#231F20">
                    <path></path>
                    <path d="M0.4,4 L0.4,132.2" stroke-dasharray="0,3.9424"></path>
                    <path></path>
                </g>
                <g transform="translate(401.000000, 280.000000)" id="Shape" stroke="#231F20">
                    <path></path>
                    <path d="M0,4 L0,132.2" stroke-dasharray="0,3.9424"></path>
                    <path></path>
                </g>
                <g transform="translate(418.000000, 280.000000)" id="Shape" stroke="#231F20">
                    <path></path>
                    <path d="M0.6,4 L0.6,132.2" stroke-dasharray="0,3.9424"></path>
                    <path></path>
                </g>
                <g transform="translate(436.000000, 280.000000)" id="Shape" stroke="#231F20">
                    <path></path>
                    <path d="M0.3,4 L0.3,132.2" stroke-dasharray="0,3.9424"></path>
                    <path></path>
                </g>
                <g transform="translate(453.000000, 280.000000)" id="Shape" stroke="#231F20">
                    <path></path>
                    <path d="M0.9,4 L0.9,132.2" stroke-dasharray="0,3.9424"></path>
                    <path></path>
                </g>
                <g transform="translate(471.000000, 280.000000)" id="Shape" stroke="#231F20">
                    <path></path>
                    <path d="M0.5,4 L0.5,132.2" stroke-dasharray="0,3.9424"></path>
                    <path></path>
                </g>
                <g transform="translate(489.000000, 280.000000)" id="Shape" stroke="#231F20">
                    <path></path>
                    <path d="M0.1,4 L0.1,132.2" stroke-dasharray="0,3.9424"></path>
                    <path></path>
                </g>
                <g transform="translate(506.000000, 280.000000)" id="Shape" stroke="#231F20">
                    <path></path>
                    <path d="M0.7,4 L0.7,132.2" stroke-dasharray="0,3.9424"></path>
                    <path></path>
                </g>
                <g transform="translate(0.000000, 304.000000)">
                    <g transform="translate(0.000000, 4.000000)" id="Shape" fill="#8D74E8">
                        <path d="M0.2,12.7 L0.2,0.1 L2.5,0.1 L2.5,12.7 L0.2,12.7 L0.2,12.7 Z"></path>
                        <path d="M4.4,12.7 L4.4,10.7 L8.1,3.7 C8.4,3.1 8.7,2.5 9,2.1 L7.4,2.1 L4.8,2.1 L4.8,0.1 L11.4,0.1 L11.4,2.1 L7.8,9.1 C7.5,9.7 7.2,10.3 6.9,10.7 L8.5,10.7 L11.4,10.7 L11.4,12.7 L4.4,12.7 L4.4,12.7 Z"></path>
                        <path d="M18.4,12.7 L18.4,3.3 L16.7,3.3 L16.7,1.9 C17.9,1.8 18.5,1 18.7,0.1 L20.6,0.1 L20.6,12.7 L18.4,12.7 L18.4,12.7 Z"></path>
                    </g>
                    <g transform="translate(0.000000, 37.000000)" id="Shape" fill="#FFA733">
                        <path d="M0.2,12.6 L0.2,0 L2.5,0 L2.5,12.6 L0.2,12.6 L0.2,12.6 Z"></path>
                        <path d="M4.4,12.6 L4.4,10.6 L8.1,3.6 C8.4,3 8.7,2.4 9,2 L7.4,2 L4.8,2 L4.8,0 L11.4,0 L11.4,2 L7.8,9 C7.5,9.6 7.2,10.2 6.9,10.6 L8.5,10.6 L11.4,10.6 L11.4,12.6 L4.4,12.6 L4.4,12.6 Z"></path>
                        <path d="M18.4,12.6 L18.4,3.2 L16.7,3.2 L16.7,1.8 C17.9,1.7 18.5,0.9 18.7,5.68434189e-14 L20.6,5.68434189e-14 L20.6,12.6 L18.4,12.6 L18.4,12.6 Z"></path>
                    </g>
                    <g transform="translate(0.000000, 69.000000)" id="Shape" fill="#03D3D8">
                        <path d="M0.2,13.5 L0.2,0.9 L2.5,0.9 L2.5,13.5 L0.2,13.5 L0.2,13.5 Z"></path>
                        <path d="M4.4,13.5 L4.4,11.5 L8.1,4.5 C8.4,3.9 8.7,3.3 9,2.9 L7.4,2.9 L4.8,2.9 L4.8,0.9 L11.4,0.9 L11.4,2.9 L7.8,9.9 C7.5,10.5 7.2,11.1 6.9,11.5 L8.5,11.5 L11.4,11.5 L11.4,13.5 L4.4,13.5 L4.4,13.5 Z"></path>
                        <path d="M18.4,13.5 L18.4,4.1 L16.7,4.1 L16.7,2.7 C17.9,2.6 18.5,1.8 18.7,0.9 L20.6,0.9 L20.6,13.5 L18.4,13.5 L18.4,13.5 Z"></path>
                    </g>
                    <rect id="Rectangle-path" fill="#8D74E8" x="31.3" y="0.2" width="405.4" height="20.1"></rect>
                    <rect id="Rectangle-path" fill="#FFA733" x="66.5" y="33.1" width="405.4" height="20.1"></rect>
                    <rect id="Rectangle-path" fill="#03D3D8" x="101.7" y="65.8" width="405.4" height="20.1"></rect>
                    <g transform="translate(35.000000, 5.000000)" id="Shape" fill="#F1F1F2">
                        <path d="M2.5,10.5 L2.5,3.4 L0.8,3.4 L0.8,2 C1.9,1.9 2.6,1.5 2.8,0.7 L4.4,0.7 L4.4,10.5 L2.5,10.5 L2.5,10.5 Z"></path>
                        <path d="M6.5,10.5 C6.6,7.1 8.6,5.7 11,4.6 C11.8,4.2 12.1,3.8 12.1,3.4 C12.1,2.9 11.7,2.4 10.5,2.4 C9.3,2.4 8.4,2.9 7.7,3.6 L6.4,2.1 C7.4,1 8.8,0.5 10.4,0.5 C12.7,0.5 14,1.4 14,3.3 C14,4.9 13.1,5.6 11.5,6.3 C9.8,7.1 9.1,7.8 8.9,8.5 L14.1,8.5 L14.1,10.4 L6.5,10.4 L6.5,10.5 Z"></path>
                        <path d="M27.1,10.5 L26.3,8.3 L22.7,8.3 L21.9,10.5 L19.8,10.5 L23.6,0.7 L25.5,0.7 L29.2,10.5 L27.1,10.5 L27.1,10.5 Z M25,4.7 C24.8,4.1 24.6,3.5 24.5,3.2 C24.4,3.6 24.2,4.2 24,4.7 L23.4,6.5 L25.6,6.5 L25,4.7 L25,4.7 Z"></path>
                        <path d="M38.3,10.5 L38.3,6.9 L38.3,4.7 C38.2,5.1 37.9,5.8 37.6,6.3 L35.6,10.7 L33.6,6.3 C33.3,5.7 33.1,5 32.9,4.7 L32.9,6.9 L32.9,10.5 L31,10.5 L31,0.7 L32.9,0.7 L34.9,5.1 C35.2,5.6 35.4,6.4 35.6,6.7 C35.7,6.3 36,5.6 36.3,5.1 L38.3,0.7 L40.2,0.7 L40.2,10.5 L38.3,10.5 L38.3,10.5 Z"></path>
                    </g>
                    <g transform="translate(397.000000, 5.000000)" id="Shape" fill="#F1F1F2">
                        <path d="M1.8,10.5 L1.8,3.4 L0.1,3.4 L0.1,2 C1.2,1.9 1.9,1.5 2.1,0.7 L3.7,0.7 L3.7,10.5 L1.8,10.5 L1.8,10.5 Z"></path>
                        <path d="M7.2,10.5 L7.2,3.4 L5.5,3.4 L5.5,2 C6.6,1.9 7.3,1.5 7.5,0.7 L9.1,0.7 L9.1,10.5 L7.2,10.5 L7.2,10.5 Z"></path>
                        <path d="M19.8,7.1 L17.6,7.1 L17.6,10.6 L15.6,10.6 L15.6,0.8 L19.9,0.8 C21.7,0.8 23.3,1.8 23.3,3.9 C23.3,6.1 21.8,7.1 19.8,7.1 L19.8,7.1 Z M19.9,2.6 L17.6,2.6 L17.6,5.1 L19.9,5.1 C20.8,5.1 21.3,4.7 21.3,3.8 C21.3,2.9 20.8,2.6 19.9,2.6 L19.9,2.6 Z"></path>
                        <path d="M32.4,10.5 L32.4,6.9 L32.4,4.7 C32.3,5.1 32,5.8 31.7,6.3 L29.7,10.7 L27.7,6.3 C27.4,5.7 27.2,5 27,4.7 L27,6.9 L27,10.5 L25.1,10.5 L25.1,0.7 L27,0.7 L29,5.1 C29.3,5.6 29.5,6.4 29.7,6.7 C29.8,6.3 30.1,5.6 30.4,5.1 L32.4,0.7 L34.3,0.7 L34.3,10.5 L32.4,10.5 L32.4,10.5 Z"></path>
                    </g>
                    <g transform="translate(71.000000, 38.000000)" id="Shape" fill="#F1F1F2">
                        <path d="M1.7,10 L1.7,3 L0,3 L0,1.6 C1.1,1.5 1.8,1.1 2,0.3 L3.6,0.3 L3.6,10.1 L1.7,10.1 L1.7,10 Z"></path>
                        <path d="M5.8,10 C5.9,6.6 7.9,5.2 10.3,4.1 C11.1,3.7 11.4,3.3 11.4,2.9 C11.4,2.4 11,1.9 9.8,1.9 C8.6,1.9 7.7,2.4 7,3.1 L5.7,1.6 C6.7,0.5 8.1,0 9.7,0 C12,0 13.3,0.9 13.3,2.8 C13.3,4.4 12.4,5.1 10.8,5.8 C9.1,6.6 8.4,7.3 8.2,8 L13.4,8 L13.4,9.9 L5.8,9.9 L5.8,10 Z"></path>
                        <path d="M26.3,10 L25.5,7.8 L21.9,7.8 L21.1,10 L19,10 L22.8,0.2 L24.7,0.2 L28.4,10 L26.3,10 L26.3,10 Z M24.2,4.2 C24,3.6 23.8,3 23.7,2.7 C23.6,3.1 23.4,3.7 23.2,4.2 L22.6,6 L24.8,6 L24.2,4.2 L24.2,4.2 Z"></path>
                        <path d="M37.5,10 L37.5,6.4 L37.5,4.2 C37.4,4.6 37.1,5.3 36.8,5.8 L34.8,10.2 L32.8,5.8 C32.5,5.2 32.3,4.5 32.1,4.2 L32.1,6.4 L32.1,10 L30.2,10 L30.2,0.2 L32.1,0.2 L34.1,4.6 C34.4,5.1 34.6,5.9 34.8,6.2 C34.9,5.8 35.2,5.1 35.5,4.6 L37.5,0.2 L39.4,0.2 L39.4,10 L37.5,10 L37.5,10 Z"></path>
                    </g>
                    <g transform="translate(432.000000, 38.000000)" id="Shape" fill="#F1F1F2">
                        <path d="M2,10 L2,3 L0.3,3 L0.3,1.6 C1.4,1.5 2.1,1.1 2.3,0.3 L3.9,0.3 L3.9,10.1 L2,10.1 L2,10 Z"></path>
                        <path d="M7.4,10 L7.4,3 L5.7,3 L5.7,1.6 C6.8,1.5 7.5,1.1 7.7,0.3 L9.3,0.3 L9.3,10.1 L7.4,10.1 L7.4,10 Z"></path>
                        <path d="M20,6.6 L17.8,6.6 L17.8,10.1 L15.8,10.1 L15.8,0.3 L20.1,0.3 C21.9,0.3 23.5,1.3 23.5,3.4 C23.6,5.6 22.1,6.6 20,6.6 L20,6.6 Z M20.1,2.1 L17.8,2.1 L17.8,4.6 L20.1,4.6 C21,4.6 21.5,4.2 21.5,3.3 C21.5,2.4 21,2.1 20.1,2.1 L20.1,2.1 Z"></path>
                        <path d="M32.6,10 L32.6,6.4 L32.6,4.2 C32.5,4.6 32.2,5.3 31.9,5.8 L29.9,10.2 L27.9,5.8 C27.6,5.2 27.4,4.5 27.2,4.2 L27.2,6.4 L27.2,10 L25.3,10 L25.3,0.2 L27.2,0.2 L29.2,4.6 C29.5,5.1 29.7,5.9 29.9,6.2 C30,5.8 30.3,5.1 30.6,4.6 L32.6,0.2 L34.5,0.2 L34.5,10 L32.6,10 L32.6,10 Z"></path>
                    </g>
                    <g transform="translate(106.000000, 71.000000)" id="Shape" fill="#F1F1F2">
                        <path d="M1.9,10.5 L1.9,3.4 L0.2,3.4 L0.2,2 C1.3,1.9 2,1.5 2.2,0.7 L3.8,0.7 L3.8,10.5 L1.9,10.5 L1.9,10.5 Z"></path>
                        <path d="M6,10.5 C6.1,7.1 8.1,5.7 10.5,4.6 C11.3,4.2 11.6,3.8 11.6,3.4 C11.6,2.9 11.2,2.4 10,2.4 C8.8,2.4 7.9,2.9 7.2,3.6 L5.9,2.1 C6.9,1 8.3,0.5 9.9,0.5 C12.2,0.5 13.5,1.4 13.5,3.3 C13.5,4.9 12.6,5.6 11,6.3 C9.3,7.1 8.6,7.8 8.4,8.5 L13.6,8.5 L13.6,10.4 L6,10.4 L6,10.5 Z"></path>
                        <path d="M26.5,10.5 L25.7,8.3 L22.1,8.3 L21.3,10.5 L19.2,10.5 L23,0.7 L24.9,0.7 L28.6,10.5 L26.5,10.5 L26.5,10.5 Z M24.4,4.7 C24.2,4.1 24,3.5 23.9,3.2 C23.8,3.6 23.6,4.2 23.4,4.7 L22.8,6.5 L25,6.5 L24.4,4.7 L24.4,4.7 Z"></path>
                        <path d="M37.7,10.5 L37.7,6.9 L37.7,4.7 C37.6,5.1 37.3,5.8 37,6.3 L35,10.7 L33,6.3 C32.7,5.7 32.5,5 32.3,4.7 L32.3,6.9 L32.3,10.5 L30.4,10.5 L30.4,0.7 L32.3,0.7 L34.3,5.1 C34.6,5.6 34.8,6.4 35,6.7 C35.1,6.3 35.4,5.6 35.7,5.1 L37.7,0.7 L39.6,0.7 L39.6,10.5 L37.7,10.5 L37.7,10.5 Z"></path>
                    </g>
                    <g transform="translate(467.000000, 71.000000)" id="Shape" fill="#F1F1F2">
                        <path d="M2.2,10.5 L2.2,3.4 L0.5,3.4 L0.5,2 C1.6,1.9 2.3,1.5 2.5,0.7 L4.1,0.7 L4.1,10.5 L2.2,10.5 L2.2,10.5 Z"></path>
                        <path d="M7.6,10.5 L7.6,3.4 L6,3.4 L6,2 C7.1,1.9 7.8,1.5 8,0.7 L9.6,0.7 L9.6,10.5 L7.6,10.5 L7.6,10.5 Z"></path>
                        <path d="M20.2,7.1 L18,7.1 L18,10.6 L16,10.6 L16,0.8 L20.3,0.8 C22.1,0.8 23.7,1.8 23.7,3.9 C23.8,6.1 22.3,7.1 20.2,7.1 L20.2,7.1 Z M20.3,2.6 L18,2.6 L18,5.1 L20.3,5.1 C21.2,5.1 21.7,4.7 21.7,3.8 C21.8,3 21.2,2.6 20.3,2.6 L20.3,2.6 Z"></path>
                        <path d="M32.9,10.5 L32.9,6.9 L32.9,4.7 C32.8,5.1 32.5,5.8 32.2,6.3 L30.2,10.7 L28.2,6.3 C27.9,5.7 27.7,5 27.5,4.7 L27.5,6.9 L27.5,10.5 L25.6,10.5 L25.6,0.7 L27.5,0.7 L29.5,5.1 C29.8,5.6 30,6.4 30.2,6.7 C30.3,6.3 30.6,5.6 30.9,5.1 L32.9,0.7 L34.8,0.7 L34.8,10.5 L32.9,10.5 L32.9,10.5 Z"></path>
                    </g>
                </g>
            </g>
        </g>
    </g>
</svg>