<?xml version="1.0" encoding="utf-8"?>
<!-- Generator: Adobe Illustrator 19.1.0, SVG Export Plug-In . SVG Version: 6.00 Build 0)  -->
<svg version="1.1" id="Layer_1" xmlns="http://www.w3.org/2000/svg" xmlns:xlink="http://www.w3.org/1999/xlink" x="0px" y="0px"
	 viewBox="0 0 792 612" style="enable-background:new 0 0 792 612;" xml:space="preserve">
<style type="text/css">
	.st0{fill:#221F1F;}
	.st1{fill:#03D3D8;}
	.st2{fill:#FFA733;}
	.st3{fill:#8D74E8;}
</style>
<g>
	<path class="st0" d="M396.9,68.8c131.3,0,237.8,106.5,237.8,237.8S528.2,544.4,396.9,544.4S159.1,437.9,159.1,306.6
		S265.5,68.8,396.9,68.8 M396.9,61.8c-33,0-65.1,6.5-95.3,19.2c-29.2,12.3-55.3,30-77.8,52.5c-22.5,22.5-40.1,48.7-52.5,77.8
		c-12.8,30.2-19.2,62.2-19.2,95.3s6.5,65.1,19.2,95.3c12.3,29.2,30,55.3,52.5,77.8c22.5,22.5,48.7,40.1,77.8,52.5
		c30.2,12.8,62.2,19.2,95.3,19.2s65.1-6.5,95.3-19.2c29.2-12.3,55.3-30,77.8-52.5c22.5-22.5,40.1-48.7,52.5-77.8
		c12.8-30.2,19.2-62.2,19.2-95.3s-6.5-65.1-19.2-95.3c-12.3-29.2-30-55.3-52.5-77.8C547.5,111,521.3,93.3,492.2,81
		C462,68.2,429.9,61.8,396.9,61.8L396.9,61.8z"/>
</g>
<g>
	<path class="st0" d="M386.2,116.6c0.2-8.5,4.2-12.6,10.5-15.4c2.7-1.2,3.1-1.6,3.1-2.6c0-1.1-0.8-1.7-2.8-1.7c-2.5,0-5,0.9-7.5,2.6
		l-3.2-5.1c3.2-2.1,6.5-3.3,10.8-3.3c6.3,0,9.5,2.5,9.5,7.1c0,3.3-1.2,5.3-6,7.6c-5,2.3-6.4,3.7-7,5.3h13.1v5.7H386.2z"/>
</g>
<g>
	<path class="st0" d="M382.4,153.6v-17.3h-4.2v-4.4c3.2-0.2,4.5-1.1,5.3-3.4h5.8v25.2H382.4z"/>
	<path class="st0" d="M393.8,153.6c0.2-8.5,4.2-12.6,10.5-15.4c2.7-1.2,3.1-1.6,3.1-2.6c0-1.1-0.8-1.7-2.8-1.7c-2.5,0-5,0.9-7.5,2.6
		l-3.2-5.1c3.2-2.1,6.5-3.3,10.8-3.3c6.3,0,9.5,2.5,9.5,7.1c0,3.3-1.2,5.3-6,7.6c-5,2.3-6.4,3.7-7,5.3h13.1v5.7H393.8z"/>
</g>
<g>
	<path class="st0" d="M382.1,190.7v-17.3h-4.2v-4.4c3.2-0.2,4.5-1.1,5.3-3.4h5.8v25.2H382.1z"/>
	<path class="st0" d="M404.4,191.1c-6.6,0-11.4-4.6-11.4-13s4.9-13,11.4-13c6.6,0,11.4,4.6,11.4,13S411,191.1,404.4,191.1z
		 M404.4,171.1c-2.7,0-4.2,2.3-4.2,6.9s1.6,7,4.3,7c2.7,0,4.2-2.3,4.2-6.9S407.1,171.1,404.4,171.1z"/>
</g>
<g>
	<path class="st0" d="M405.5,442.5v4.3h-6.3v-4.5H385v-5.1l13.6-15.6h6.9v15h3.2v5.9H405.5z M396.3,432.6l-0.4,0.4
		c-1.3,1.6-2.4,2.8-3.3,3.7c1.3-0.1,3-0.1,4.7-0.1h1.9v-2.5c0-1.5,0-4.2,0.1-5.4C398.7,429.8,398,430.7,396.3,432.6z"/>
</g>
<g>
	<path class="st0" d="M396.5,484.3c-6.3,0-10.7-3.5-10.7-10.4c0-6.7,4.4-15.5,18.8-15.5v5.7c-6.6,0-10,1.9-12,4.9
		c1.6-0.9,3.5-1.5,6.5-1.5c5.2,0,8.9,2.5,8.9,7.8C408,480.9,403.6,484.3,396.5,484.3z M397,472.6c-3.1,0-4.6,1.2-4.6,3.2
		c0,1.8,1.4,3.1,4.4,3.1c2.6,0,4.4-1.1,4.4-3.1C401.3,473.8,399.7,472.6,397,472.6z"/>
</g>
<g>
	<path class="st0" d="M396.8,521.4c-7.1,0-11.4-3.1-11.4-8.2c0-3.2,2.3-4.9,3.9-5.5c-1.5-0.9-2.8-2.4-2.8-4.7
		c0-4.8,4.4-7.5,10.4-7.5c6.1,0,10.4,2.7,10.4,7.5c0,2.3-1.3,3.6-2.8,4.6c1.6,0.6,3.9,2.4,3.9,5.6
		C408.4,518.3,403.9,521.4,396.8,521.4z M396.8,510.1c-3.2,0-4.8,1.3-4.8,3s1.7,3,4.8,3s4.8-1.3,4.8-3S400,510.1,396.8,510.1z
		 M396.8,500.5c-2.7,0-3.7,1.3-3.7,2.5c0,1.3,1,2.4,3.7,2.4s3.7-1.2,3.7-2.4C400.6,501.7,399.6,500.5,396.8,500.5z"/>
</g>
<g>
	<path class="st0" d="M598.2,319.9c-4.4,0-7.7-1.2-10.8-3.1l2.8-5.2c2.4,1.4,5.4,2.5,8.1,2.5c3.2,0,4.4-1.2,4.4-3.2
		c0-1.9-1.2-3-3.4-3c-2.1,0-3.4,0.5-4.6,1.4l-6-2l0.9-13.1H608v5.7h-12.7l-0.2,3.5c1.4-0.7,2.9-1.1,5.4-1.1c5.4,0,9,2.7,9,8.4
		C609.5,316.6,605.4,319.9,598.2,319.9z"/>
</g>
<g>
	<path class="st0" d="M561.6,319.9c-4.3,0-7.9-1.5-10.6-3.9l3.6-4.5c2.1,1.6,4.4,2.6,7.2,2.6c2.9,0,4.1-0.8,4.1-2.6
		c0-1.8-1-2.4-3.6-2.4h-3.6v-5.4h3.2c2.2,0,2.9-0.5,2.9-2.1c0-1.3-1-2.1-3.5-2.1c-2.4,0-4.3,0.8-6.3,2.2l-3.3-4.5
		c2.3-1.8,5.4-3.3,9.8-3.3c6,0,10.1,1.9,10.1,7.2c0,2.8-1.6,4.1-3.3,4.9c2.3,0.5,4.4,2.2,4.4,5.4
		C572.7,317.4,568.5,319.9,561.6,319.9z"/>
</g>
<g>
	<path class="st0" d="M523.5,319.5v-17.3h-4.2v-4.4c3.2-0.2,4.5-1.1,5.3-3.4h5.8v25.2H523.5z"/>
</g>
<g>
	<path class="st0" d="M269.8,319.5h-6.8c0.1-8.6,2.4-14.5,7.3-19.5h-12.5v-5.7h20.8v5C271.2,306.1,269.8,311.4,269.8,319.5z"/>
</g>
<g>
	<path class="st0" d="M224.1,319.9v-5.7c6.6,0,10-1.9,12-4.9c-1.6,0.9-3.5,1.5-6.5,1.5c-5.2,0-8.9-2.5-8.9-7.8
		c0-5.7,4.4-9.1,11.5-9.1c6.3,0,10.7,3.5,10.7,10.4C242.8,311,238.5,319.9,224.1,319.9z M231.8,299.4c-2.6,0-4.4,1.1-4.4,3.1
		c0,1.9,1.6,3.1,4.2,3.1c3.1,0,4.6-1.2,4.6-3.2C236.2,300.7,234.8,299.4,231.8,299.4z"/>
</g>
<g>
	<path class="st0" d="M185.7,319.5v-17.3h-4.2v-4.4c3.2-0.2,4.5-1.1,5.3-3.4h5.8v25.2H185.7z"/>
	<path class="st0" d="M200.8,319.5v-17.3h-4.2v-4.4c3.2-0.2,4.5-1.1,5.3-3.4h5.8v25.2H200.8z"/>
</g>
<path class="st1" d="M531.3,171.5c12.2,12.2,22.3,25.6,30.5,39.8l40.9-23.6c-10.2-17.7-22.9-34.4-38-49.6
	c-15-15-31.4-27.5-48.9-37.6l-23.6,40.9C506.2,149.6,519.3,159.6,531.3,171.5z"/>
<path class="st2" d="M531.3,171.5c-12-12-25.1-22-39.1-30.1l-23.6,40.9c10.5,6.1,20.3,13.6,29.3,22.5c9.2,9.2,16.8,19.3,23,30
	l40.9-23.6C553.6,197.1,543.4,183.7,531.3,171.5z"/>
<path class="st3" d="M479.9,258.6l40.9-23.6c-6.1-10.7-13.8-20.9-23-30c-9-9-18.8-16.5-29.3-22.5l-23.6,40.9c7,4,13.6,9,19.5,15
	C470.6,244.6,475.8,251.4,479.9,258.6z"/>
</svg>
