<?xml version="1.0" encoding="utf-8"?>
<!-- Generator: Adobe Illustrator 19.1.0, SVG Export Plug-In . SVG Version: 6.00 Build 0)  -->
<svg version="1.1" id="Layer_1" xmlns="http://www.w3.org/2000/svg" xmlns:xlink="http://www.w3.org/1999/xlink" x="0px" y="0px"
	 viewBox="0 0 792 612" style="enable-background:new 0 0 792 612;" xml:space="preserve">
<style type="text/css">
	.st0{fill:#03D3D8;}
	.st1{fill:#FFFFFF;}
</style>
<g>
	<rect x="256.8" y="271.4" class="st0" width="278.5" height="69.1"/>
</g>
<g>
	<path class="st1" d="M329.8,307.8c0,2.2-0.7,4-2,5.4c-1.4,1.4-3.1,2.1-5.3,2.1c-2.1,0-3.9-0.7-5.2-2.1c-1.3-1.4-2-3.2-2-5.4v-3.2
		c0-2.2,0.7-4,2-5.4c1.3-1.4,3.1-2.1,5.2-2.1c2.2,0,3.9,0.7,5.3,2.1c1.4,1.4,2.1,3.2,2.1,5.4V307.8z M326.8,304.6
		c0-1.5-0.4-2.7-1.2-3.6c-0.8-1-1.9-1.4-3.2-1.4c-1.3,0-2.3,0.5-3.1,1.4s-1.1,2.2-1.1,3.6v3.2c0,1.5,0.4,2.7,1.1,3.7
		c0.8,1,1.8,1.4,3.1,1.4c1.4,0,2.4-0.5,3.2-1.4c0.8-1,1.2-2.2,1.2-3.7V304.6z"/>
	<path class="st1" d="M336,308.4v6.7h-3v-17.8h6.9c2,0,3.5,0.5,4.6,1.5c1.1,1,1.7,2.3,1.7,4c0,1.7-0.6,3-1.7,4
		c-1.1,1-2.6,1.5-4.6,1.5H336z M336,306h4c1.1,0,1.9-0.3,2.5-0.9s0.8-1.3,0.8-2.2s-0.3-1.7-0.8-2.3c-0.6-0.6-1.4-0.9-2.5-0.9h-4V306
		z"/>
	<path class="st1" d="M361.3,299.7h-5.4v15.4h-3v-15.4h-5.4v-2.4h13.7V299.7z"/>
	<path class="st1" d="M366,308.8h-6.4v-2.4h6.4V308.8z"/>
	<path class="st1" d="M372,315.1h-3v-17.8h3V315.1z"/>
	<path class="st1" d="M390,315.1h-3l-7.9-13l-0.1,0v13h-3v-17.8h3l7.9,13l0.1,0v-12.9h3V315.1z"/>
	<path class="st1" d="M412.2,299.7h-5.4v15.4h-3v-15.4h-5.4v-2.4h13.7V299.7z"/>
	<path class="st1" d="M428,307.8c0,2.2-0.7,4-2,5.4c-1.4,1.4-3.1,2.1-5.3,2.1c-2.1,0-3.9-0.7-5.2-2.1c-1.3-1.4-2-3.2-2-5.4v-3.2
		c0-2.2,0.7-4,2-5.4c1.3-1.4,3.1-2.1,5.2-2.1c2.2,0,3.9,0.7,5.3,2.1c1.4,1.4,2.1,3.2,2.1,5.4V307.8z M425.1,304.6
		c0-1.5-0.4-2.7-1.2-3.6c-0.8-1-1.9-1.4-3.2-1.4c-1.3,0-2.3,0.5-3.1,1.4s-1.1,2.2-1.1,3.6v3.2c0,1.5,0.4,2.7,1.1,3.7
		c0.8,1,1.8,1.4,3.1,1.4c1.4,0,2.4-0.5,3.2-1.4c0.8-1,1.2-2.2,1.2-3.7V304.6z"/>
	<path class="st1" d="M440.6,315.1h-3v-17.8h3V315.1z"/>
	<path class="st1" d="M447.3,312.7h9.3v2.4h-12.8v-1.9l8.9-13.5h-8.9v-2.4h12.4v1.8L447.3,312.7z"/>
	<path class="st1" d="M468.6,304.9h2.1c1,0,1.7-0.2,2.1-0.7c0.4-0.5,0.6-1.1,0.6-2c0-0.9-0.2-1.5-0.7-2c-0.5-0.5-1.1-0.7-2-0.7
		c-0.8,0-1.5,0.2-2,0.7c-0.5,0.5-0.8,1.1-0.8,1.8H465l0-0.1c0-1.4,0.5-2.5,1.5-3.4c1.1-0.9,2.4-1.4,4.1-1.4c1.7,0,3.1,0.4,4.2,1.3
		c1,0.9,1.5,2.1,1.5,3.7c0,0.8-0.2,1.5-0.7,2.2s-1.1,1.3-2,1.6c1,0.4,1.8,0.9,2.2,1.6c0.5,0.7,0.7,1.6,0.7,2.5
		c0,1.6-0.6,2.9-1.7,3.8c-1.1,0.9-2.5,1.4-4.3,1.4c-1.6,0-3-0.4-4.1-1.3s-1.7-2.1-1.6-3.6l0-0.1h2.9c0,0.8,0.3,1.4,0.8,1.9
		c0.5,0.5,1.2,0.7,2.1,0.7c0.9,0,1.6-0.2,2.2-0.7c0.5-0.5,0.8-1.2,0.8-2.1c0-1-0.2-1.7-0.7-2.2c-0.5-0.5-1.2-0.7-2.3-0.7h-2.1V304.9
		z"/>
</g>
</svg>
