<?xml version="1.0" encoding="utf-8"?>
<!-- Generator: Adobe Illustrator 19.1.0, SVG Export Plug-In . SVG Version: 6.00 Build 0)  -->
<svg version="1.1" id="Layer_1" xmlns="http://www.w3.org/2000/svg" xmlns:xlink="http://www.w3.org/1999/xlink" x="0px" y="0px"
	 viewBox="0 0 792 612" style="enable-background:new 0 0 792 612;" xml:space="preserve">
<style type="text/css">
	.st0{fill:#8D74E8;}
	.st1{fill:#FFFFFF;}
</style>
<path class="st0" d="M467.3,305c0,33.9-27.5,61.4-61.4,61.4c-33.9,0-61.4-27.5-61.4-61.4s27.5-61.4,61.4-61.4
	C439.8,243.6,467.3,271.1,467.3,305"/>
<g>
	<g>
		<path class="st1" d="M383.1,316.7v-28h5v28H383.1z"/>
		<path class="st1" d="M392.4,316.7v-4.4l8.1-15.6c0.7-1.4,1.4-2.6,2-3.5c-1,0-2.2,0.1-3.6,0.1h-5.9v-4.5h14.6v4.4l-8,15.6
			c-0.7,1.4-1.4,2.6-2,3.5c1,0,2.2-0.1,3.6-0.1h6.5v4.5H392.4z"/>
		<path class="st1" d="M423.6,316.7v-20.8h-3.8v-3.1c2.8-0.3,4-2,4.5-4h4.3v28H423.6z"/>
	</g>
</g>
</svg>
