<?xml version="1.0" encoding="UTF-8" standalone="no"?>
<svg width="350px" height="132px" viewBox="0 0 350 132" version="1.1" xmlns="http://www.w3.org/2000/svg" xmlns:xlink="http://www.w3.org/1999/xlink" xmlns:sketch="http://www.bohemiancoding.com/sketch/ns">
    <!-- Generator: Sketch 3.3.3 (12072) - http://www.bohemiancoding.com/sketch -->
    <title>Slice 1</title>
    <desc>Created with Sketch.</desc>
    <defs></defs>
    <g id="Page-1" stroke="none" stroke-width="1" fill="none" fill-rule="evenodd" sketch:type="MSPage">
        <g id="interzone_logo" sketch:type="MSLayerGroup">
            <g id="Group" sketch:type="MSShapeGroup">
                <g transform="translate(0.000000, 45.000000)" id="Shape" fill="#231F20">
                    <path d="M0.8,85.3 L0.8,2 L14.1,2 L14.1,85.3 L0.8,85.3 L0.8,85.3 Z"></path>
                    <path d="M51.1,85.3 L43,59.7 C40.5,51.5 37.2,39.8 35.6,33.6 C35.7,39.7 36,51 36,58.4 L36,85.3 L23.6,85.3 L23.6,2 L35.6,2 L42.1,22.4 C44.4,29.2 47.6,40 49.1,46.3 C49,40.6 48.7,29.2 48.7,23 L48.7,2.1 L61.1,2.1 L61.1,85.4 L51.1,85.4 L51.1,85.3 Z"></path>
                    <path d="M91.3,14.3 L91.3,85.2 L78,85.2 L78,14.3 L66.8,14.3 L66.8,1.9 L102.6,1.9 L102.6,14.3 L91.3,14.3 L91.3,14.3 Z"></path>
                    <path d="M108.1,85.3 L108.1,2 L139.3,2 L139.3,14.4 L121.4,14.4 L121.4,35.2 L135.1,35.2 L135.1,47.6 L121.4,47.6 L121.4,73 L140.3,73 L140.3,85.4 L108.1,85.4 L108.1,85.3 Z"></path>
                    <path d="M170.1,85.3 L163.2,48.6 L159.9,48.6 L159.9,85.3 L146.7,85.3 L146.7,2 L164,2 C174.4,2 182.8,7.6 182.8,25 C182.8,34.6 180.1,41.2 175.4,44.9 L183.6,85.4 L170.1,85.4 L170.1,85.3 Z M163,13.3 L159.9,13.3 L159.9,37.7 L162.6,37.7 C167.1,37.7 169.4,34.4 169.4,25.6 C169.4,16.3 167.6,13.3 163,13.3 L163,13.3 Z"></path>
                    <path d="M188,85.3 L188,73.9 L201.9,29.3 C203.4,24.4 205.8,17 206.9,13.9 C204.8,13.9 201.3,14 197.9,14 L189.2,14 L189.2,2 L220,2 L220,13.4 L206.2,57.6 C204.7,62.7 202.3,70.2 201.2,73.4 C203.3,73.4 206.3,73.3 209.9,73.3 L220,73.3 L220,85.3 L188,85.3 L188,85.3 Z"></path>
                    <path d="M243,86.6 C228.4,86.6 223.8,72.7 223.8,43.9 C223.8,14.9 228.4,0.7 243.2,0.7 C258,0.7 262.7,15 262.7,43.4 C262.7,72.4 258,86.6 243,86.6 L243,86.6 Z M243.1,12.9 C238.7,12.9 237.5,18.1 237.5,43.4 C237.5,68.9 239,74.3 243.2,74.3 C247.5,74.3 248.9,69.1 248.9,43.8 C248.9,18.4 247.4,12.9 243.1,12.9 L243.1,12.9 Z"></path>
                    <path d="M297.6,85.3 L289.5,59.7 C287,51.5 283.7,39.8 282.1,33.6 C282.2,39.7 282.5,51 282.5,58.4 L282.5,85.3 L270.1,85.3 L270.1,2 L282.1,2 L288.6,22.4 C290.9,29.2 294.1,40 295.6,46.3 C295.5,40.6 295.2,29.2 295.2,23 L295.2,2.1 L307.6,2.1 L307.6,85.4 L297.6,85.4 L297.6,85.3 Z"></path>
                    <path d="M317,85.3 L317,2 L348.2,2 L348.2,14.4 L330.3,14.4 L330.3,35.2 L344,35.2 L344,47.6 L330.3,47.6 L330.3,73 L349.2,73 L349.2,85.4 L317,85.4 L317,85.3 Z"></path>
                </g>
                <rect id="Rectangle-path" fill="#8D74E8" x="0.8" y="30.8" width="34" height="3.7"></rect>
                <rect id="Rectangle-path" fill="#FFA733" x="34.7" y="30.8" width="34" height="3.7"></rect>
                <rect id="Rectangle-path" fill="#03D3D8" x="68.7" y="30.8" width="34" height="3.7"></rect>
                <g id="Shape" fill="#231F20">
                    <path d="M7,11.4 L2.7,11.4 L2.7,18.3 L0.7,18.3 L0.7,0.6 L7.3,0.6 C10.5,0.6 12.9,2.3 12.9,5.9 C13,9.5 10.6,11.4 7,11.4 L7,11.4 Z M7.3,2.5 L2.7,2.5 L2.7,9.6 L7,9.6 C9.7,9.6 11,8.4 11,6 C11,3.8 9.7,2.5 7.3,2.5 L7.3,2.5 Z"></path>
                    <path d="M24.2,10.7 L28.1,18.4 L25.8,18.4 L22,10.9 L17.8,10.9 L17.8,18.4 L15.8,18.4 L15.8,0.7 L22.8,0.7 C25.9,0.7 28.3,2.3 28.3,5.7 C28.3,8.5 26.7,10.2 24.2,10.7 L24.2,10.7 Z M22.8,2.5 L17.9,2.5 L17.9,9.1 L22.6,9.1 C25.2,9.1 26.5,8 26.5,5.8 C26.4,3.6 25.1,2.5 22.8,2.5 L22.8,2.5 Z"></path>
                    <path d="M37.9,18.6 C33.5,18.6 30.6,14.8 30.6,9.5 C30.6,4.2 33.6,0.4 37.9,0.4 C42.3,0.4 45.2,4.2 45.2,9.5 C45.3,14.8 42.3,18.6 37.9,18.6 L37.9,18.6 Z M37.9,2.2 C34.8,2.2 32.6,5.1 32.6,9.5 C32.6,13.9 34.9,16.8 38,16.8 C41.1,16.8 43.3,13.9 43.3,9.5 C43.3,5.1 41,2.2 37.9,2.2 L37.9,2.2 Z"></path>
                    <path d="M52.7,18.6 C49.7,18.6 48,17.1 47.1,14.3 L49,13.7 C49.7,15.6 50.7,16.8 52.8,16.8 C55.6,16.8 56.8,15.2 56.8,11.5 L56.8,0.7 L58.8,0.7 L58.8,11.6 C58.7,16.3 56.8,18.6 52.7,18.6 L52.7,18.6 Z"></path>
                    <path d="M62.7,18.4 L62.7,0.7 L73.4,0.7 L73.4,2.5 L64.7,2.5 L64.7,8 L69.7,8 L69.7,9.8 L64.7,9.8 L64.7,16.5 L73.8,16.5 L73.8,18.3 L62.7,18.3 L62.7,18.4 Z"></path>
                    <path d="M82.7,18.6 C78.4,18.6 75.6,14.7 75.6,9.5 C75.6,4.3 78.6,0.4 82.8,0.4 C85.2,0.4 87,1.3 88.4,3.2 L86.8,4.4 C85.7,2.9 84.6,2.2 82.7,2.2 C79.7,2.2 77.5,5.2 77.5,9.5 C77.5,13.8 79.7,16.8 82.7,16.8 C84.6,16.8 85.9,15.9 87.1,14.5 L88.5,15.7 C87.2,17.5 85.3,18.6 82.7,18.6 L82.7,18.6 Z"></path>
                    <path d="M97.4,2.5 L97.4,18.4 L95.4,18.4 L95.4,2.5 L90.2,2.5 L90.2,0.7 L102.6,0.7 L102.6,2.5 L97.4,2.5 L97.4,2.5 Z"></path>
                </g>
            </g>
        </g>
    </g>
</svg>