<?xml version="1.0" encoding="utf-8"?>
<!-- Generator: Adobe Illustrator 19.1.0, SVG Export Plug-In . SVG Version: 6.00 Build 0)  -->
<svg version="1.1" id="Layer_1" xmlns="http://www.w3.org/2000/svg" xmlns:xlink="http://www.w3.org/1999/xlink" x="0px" y="0px"
	 viewBox="0 0 792 612" style="enable-background:new 0 0 792 612;" xml:space="preserve">
<style type="text/css">
	.st0{fill:#8D74E8;}
</style>
<g>
	<path class="st0" d="M543,274v63.1H268.8V274H543 M546,271H265.8v69.1H546V271L546,271z"/>
</g>
<g>
	<path class="st0" d="M339.7,307.4c0,2.2-0.7,4-2,5.4c-1.4,1.4-3.1,2.1-5.3,2.1c-2.1,0-3.9-0.7-5.2-2.1c-1.3-1.4-2-3.2-2-5.4v-3.2
		c0-2.2,0.7-4,2-5.4c1.3-1.4,3.1-2.1,5.2-2.1c2.2,0,3.9,0.7,5.3,2.1c1.4,1.4,2.1,3.2,2.1,5.4V307.4z M336.7,304.2
		c0-1.5-0.4-2.7-1.2-3.6c-0.8-1-1.9-1.4-3.2-1.4c-1.3,0-2.3,0.5-3.1,1.4s-1.1,2.2-1.1,3.6v3.2c0,1.5,0.4,2.7,1.1,3.7
		c0.8,1,1.8,1.4,3.1,1.4c1.4,0,2.4-0.5,3.2-1.4c0.8-1,1.2-2.2,1.2-3.7V304.2z"/>
	<path class="st0" d="M345.9,308v6.7h-3v-17.8h6.9c2,0,3.5,0.5,4.6,1.5c1.1,1,1.7,2.3,1.7,4c0,1.7-0.6,3-1.7,4
		c-1.1,1-2.6,1.5-4.6,1.5H345.9z M345.9,305.6h4c1.1,0,1.9-0.3,2.5-0.9c0.6-0.6,0.8-1.3,0.8-2.2s-0.3-1.7-0.8-2.3
		c-0.6-0.6-1.4-0.9-2.5-0.9h-4V305.6z"/>
	<path class="st0" d="M371.2,299.3h-5.4v15.4h-3v-15.4h-5.4v-2.4h13.7V299.3z"/>
	<path class="st0" d="M375.9,308.3h-6.4V306h6.4V308.3z"/>
	<path class="st0" d="M381.9,314.7h-3v-17.8h3V314.7z"/>
	<path class="st0" d="M399.9,314.7h-3l-7.9-13l-0.1,0v13h-3v-17.8h3l7.9,13l0.1,0v-12.9h3V314.7z"/>
	<path class="st0" d="M422.1,299.3h-5.4v15.4h-3v-15.4h-5.4v-2.4h13.7V299.3z"/>
	<path class="st0" d="M437.9,307.4c0,2.2-0.7,4-2,5.4c-1.4,1.4-3.1,2.1-5.3,2.1c-2.1,0-3.9-0.7-5.2-2.1c-1.3-1.4-2-3.2-2-5.4v-3.2
		c0-2.2,0.7-4,2-5.4c1.3-1.4,3.1-2.1,5.2-2.1c2.2,0,3.9,0.7,5.3,2.1c1.4,1.4,2.1,3.2,2.1,5.4V307.4z M435,304.2
		c0-1.5-0.4-2.7-1.2-3.6c-0.8-1-1.9-1.4-3.2-1.4c-1.3,0-2.3,0.5-3.1,1.4s-1.1,2.2-1.1,3.6v3.2c0,1.5,0.4,2.7,1.1,3.7
		c0.8,1,1.8,1.4,3.1,1.4c1.4,0,2.4-0.5,3.2-1.4s1.2-2.2,1.2-3.7V304.2z"/>
	<path class="st0" d="M450.5,314.7h-3v-17.8h3V314.7z"/>
	<path class="st0" d="M457.2,312.3h9.3v2.4h-12.8v-1.9l8.9-13.5h-8.8v-2.4h12.4v1.8L457.2,312.3z"/>
	<path class="st0" d="M482.5,314.7h-3v-15h-3.6v-2.2l6.6-0.6V314.7z"/>
</g>
</svg>
