<?xml version="1.0" encoding="UTF-8" standalone="no"?>
<svg width="124px" height="124px" viewBox="0 0 124 124" version="1.1" xmlns="http://www.w3.org/2000/svg" xmlns:xlink="http://www.w3.org/1999/xlink" xmlns:sketch="http://www.bohemiancoding.com/sketch/ns">
    <!-- Generator: Sketch 3.3.3 (12072) - http://www.bohemiancoding.com/sketch -->
    <title>Slice 1</title>
    <desc>Created with Sketch.</desc>
    <defs></defs>
    <g id="Page-1" stroke="none" stroke-width="1" fill="none" fill-rule="evenodd" sketch:type="MSPage">
        <g id="interzone_iz2" sketch:type="MSLayerGroup">
            <path d="M123.4,62 C123.4,95.9 95.9,123.4 62,123.4 C28.1,123.4 0.6,95.9 0.6,62 C0.6,28.1 28.1,0.6 62,0.6 C95.9,0.6 123.4,28.1 123.4,62" id="Shape" fill="#FFA733" sketch:type="MSShapeGroup"></path>
            <g id="Group" transform="translate(35.000000, 45.000000)" fill="#FFFFFF" sketch:type="MSShapeGroup">
                <path d="M0.1,28.7 L0.1,0.7 L5.1,0.7 L5.1,28.7 L0.1,28.7 L0.1,28.7 Z" id="Shape"></path>
                <path d="M9.4,28.7 L9.4,24.3 L17.5,8.7 C18.2,7.3 18.9,6.1 19.5,5.2 C18.5,5.2 17.3,5.3 15.9,5.3 L10,5.3 L10,0.8 L24.6,0.8 L24.6,5.2 L16.6,20.8 C15.9,22.2 15.2,23.4 14.6,24.3 C15.6,24.3 16.8,24.2 18.2,24.2 L24.7,24.2 L24.7,28.7 L9.4,28.7 L9.4,28.7 Z" id="Shape"></path>
                <path d="M37.7,28.7 C38,20.1 40.7,16.6 45.9,12.8 C47.8,11.4 48.5,10.2 48.5,8.6 C48.5,6.4 47.4,5.3 45.3,5.3 C43.5,5.3 42.1,6.3 40.8,7.8 L37.7,4.2 C39.6,1.8 42.1,0.3 45.5,0.3 C50.3,0.3 53.6,3 53.6,7.9 C53.6,11.8 51.7,14.2 49,16.2 C45.2,19 43.5,20.9 43.3,23.9 L53.7,23.9 L53.7,28.8 L37.7,28.8 L37.7,28.7 Z" id="Shape"></path>
            </g>
        </g>
        <g id="interzone_iz3" sketch:type="MSLayerGroup">
            <path d="M123.4,62 C123.4,95.9 95.9,123.4 62,123.4 C28.1,123.4 0.6,95.9 0.6,62 C0.6,28.1 28.1,0.6 62,0.6 C95.9,0.6 123.4,28.1 123.4,62" id="Shape" fill="#03D3D8" sketch:type="MSShapeGroup"></path>
            <g id="Group" transform="translate(35.000000, 45.000000)" fill="#FFFFFF" sketch:type="MSShapeGroup">
                <path d="M0.4,28.7 L0.4,0.7 L5.4,0.7 L5.4,28.7 L0.4,28.7 L0.4,28.7 Z" id="Shape"></path>
                <path d="M9.7,28.7 L9.7,24.3 L17.8,8.7 C18.5,7.3 19.2,6.1 19.8,5.2 C18.8,5.2 17.6,5.3 16.2,5.3 L10.3,5.3 L10.3,0.8 L25,0.8 L25,5.2 L17,20.8 C16.3,22.2 15.6,23.4 15,24.3 C16,24.3 17.2,24.2 18.6,24.2 L25.1,24.2 L25.1,28.7 L9.7,28.7 L9.7,28.7 Z" id="Shape"></path>
                <path d="M45.4,29.1 C41.6,29.1 39,27.5 36.8,24 L40.8,21.2 C42.3,23.4 43.7,24.2 45.6,24.2 C48,24.2 49.4,22.7 49.4,20.4 C49.4,17.6 47.5,16.4 44.9,16.4 L43,16.4 L43,11.6 L45,11.6 C47.3,11.6 48.6,10.6 48.6,8.6 C48.6,6.8 47.7,5.3 45.3,5.3 C43.8,5.3 42.7,5.9 41.3,7.4 L37.9,4 C39.9,1.7 41.9,0.4 45.7,0.4 C50.5,0.4 53.7,3.4 53.7,8 C53.7,11.2 52.1,13 49.8,13.8 C52.2,14.5 54.5,16.5 54.5,20.4 C54.4,25.8 51.1,29.1 45.4,29.1 L45.4,29.1 Z" id="Shape"></path>
            </g>
        </g>
    </g>
</svg>