<?xml version="1.0" encoding="UTF-8" standalone="no"?>
<svg width="124px" height="124px" viewBox="0 0 124 124" version="1.1" xmlns="http://www.w3.org/2000/svg" xmlns:xlink="http://www.w3.org/1999/xlink" xmlns:sketch="http://www.bohemiancoding.com/sketch/ns">
    <!-- Generator: Sketch 3.3.3 (12072) - http://www.bohemiancoding.com/sketch -->
    <title>Slice 1</title>
    <desc>Created with Sketch.</desc>
    <defs></defs>
    <g id="Page-1" stroke="none" stroke-width="1" fill="none" fill-rule="evenodd" sketch:type="MSPage">
        <g id="interzone_iz2" sketch:type="MSLayerGroup">
            <path d="M123.4,62 C123.4,95.9 95.9,123.4 62,123.4 C28.1,123.4 0.6,95.9 0.6,62 C0.6,28.1 28.1,0.6 62,0.6 C95.9,0.6 123.4,28.1 123.4,62" id="Shape" fill="#FFA733" sketch:type="MSShapeGroup"></path>
            <g id="Group" transform="translate(35.000000, 45.000000)" fill="#FFFFFF" sketch:type="MSShapeGroup">
                <path d="M0.1,28.7 L0.1,0.7 L5.1,0.7 L5.1,28.7 L0.1,28.7 L0.1,28.7 Z" id="Shape"></path>
                <path d="M9.4,28.7 L9.4,24.3 L17.5,8.7 C18.2,7.3 18.9,6.1 19.5,5.2 C18.5,5.2 17.3,5.3 15.9,5.3 L10,5.3 L10,0.8 L24.6,0.8 L24.6,5.2 L16.6,20.8 C15.9,22.2 15.2,23.4 14.6,24.3 C15.6,24.3 16.8,24.2 18.2,24.2 L24.7,24.2 L24.7,28.7 L9.4,28.7 L9.4,28.7 Z" id="Shape"></path>
                <path d="M37.7,28.7 C38,20.1 40.7,16.6 45.9,12.8 C47.8,11.4 48.5,10.2 48.5,8.6 C48.5,6.4 47.4,5.3 45.3,5.3 C43.5,5.3 42.1,6.3 40.8,7.8 L37.7,4.2 C39.6,1.8 42.1,0.3 45.5,0.3 C50.3,0.3 53.6,3 53.6,7.9 C53.6,11.8 51.7,14.2 49,16.2 C45.2,19 43.5,20.9 43.3,23.9 L53.7,23.9 L53.7,28.8 L37.7,28.8 L37.7,28.7 Z" id="Shape"></path>
            </g>
        </g>
    </g>
</svg>